# Blender 3.3.0
# www.blender.org
mtllib ring.mtl
o 柱体
v 0.000000 -0.020000 -0.977865
v 0.000000 0.020000 -0.977865
v 0.190772 -0.020000 -0.959075
v 0.190772 0.020000 -0.959075
v 0.374213 -0.020000 -0.903429
v 0.374213 0.020000 -0.903429
v 0.543273 -0.020000 -0.813065
v 0.543273 0.020000 -0.813065
v 0.691455 -0.020000 -0.691455
v 0.691455 0.020000 -0.691455
v 0.813065 -0.020000 -0.543273
v 0.813065 0.020000 -0.543273
v 0.903429 -0.020000 -0.374213
v 0.903429 0.020000 -0.374213
v 0.959075 -0.020000 -0.190772
v 0.959075 0.020000 -0.190772
v 0.977865 -0.020000 0.000000
v 0.977865 0.020000 0.000000
v 0.959075 -0.020000 0.190772
v 0.959075 0.020000 0.190772
v 0.903429 -0.020000 0.374213
v 0.903429 0.020000 0.374213
v 0.813065 -0.020000 0.543273
v 0.813065 0.020000 0.543273
v 0.691455 -0.020000 0.691455
v 0.691455 0.020000 0.691455
v 0.543273 -0.020000 0.813065
v 0.543273 0.020000 0.813065
v 0.374213 -0.020000 0.903429
v 0.374213 0.020000 0.903429
v 0.190772 -0.020000 0.959075
v 0.190772 0.020000 0.959075
v 0.000000 -0.020000 0.977865
v 0.000000 0.020000 0.977865
v -0.190772 -0.020000 0.959075
v -0.190772 0.020000 0.959075
v -0.374213 -0.020000 0.903429
v -0.374213 0.020000 0.903429
v -0.543273 -0.020000 0.813065
v -0.543273 0.020000 0.813065
v -0.691455 -0.020000 0.691455
v -0.691455 0.020000 0.691455
v -0.813065 -0.020000 0.543273
v -0.813065 0.020000 0.543273
v -0.903429 -0.020000 0.374213
v -0.903429 0.020000 0.374213
v -0.959075 -0.020000 0.190772
v -0.959075 0.020000 0.190772
v -0.977865 -0.020000 0.000000
v -0.977865 0.020000 0.000000
v -0.959075 -0.020000 -0.190772
v -0.959075 0.020000 -0.190772
v -0.903429 -0.020000 -0.374213
v -0.903429 0.020000 -0.374213
v -0.813065 -0.020000 -0.543273
v -0.813065 0.020000 -0.543273
v -0.691455 -0.020000 -0.691455
v -0.691455 0.020000 -0.691455
v -0.543273 -0.020000 -0.813065
v -0.543273 0.020000 -0.813065
v -0.374213 -0.020000 -0.903429
v -0.374213 0.020000 -0.903429
v -0.190772 -0.020000 -0.959075
v -0.190772 0.020000 -0.959075
v 0.000000 -0.020000 -1.000000
v 0.195090 -0.020000 -0.980785
v 0.195090 0.020000 -0.980785
v 0.000000 0.020000 -1.000000
v 0.382683 -0.020000 -0.923880
v 0.382683 0.020000 -0.923880
v 0.555570 -0.020000 -0.831470
v 0.555570 0.020000 -0.831470
v 0.707107 -0.020000 -0.707107
v 0.707107 0.020000 -0.707107
v 0.831470 -0.020000 -0.555570
v 0.831470 0.020000 -0.555570
v 0.923880 -0.020000 -0.382683
v 0.923880 0.020000 -0.382683
v 0.980785 -0.020000 -0.195090
v 0.980785 0.020000 -0.195090
v 1.000000 -0.020000 0.000000
v 1.000000 0.020000 0.000000
v 0.980785 -0.020000 0.195090
v 0.980785 0.020000 0.195090
v 0.923880 -0.020000 0.382683
v 0.923880 0.020000 0.382683
v 0.831470 -0.020000 0.555570
v 0.831470 0.020000 0.555570
v 0.707107 -0.020000 0.707107
v 0.707107 0.020000 0.707107
v 0.555570 -0.020000 0.831470
v 0.555570 0.020000 0.831470
v 0.382683 -0.020000 0.923880
v 0.382683 0.020000 0.923880
v 0.195090 -0.020000 0.980785
v 0.195090 0.020000 0.980785
v 0.000000 -0.020000 1.000000
v 0.000000 0.020000 1.000000
v -0.195090 -0.020000 0.980785
v -0.195090 0.020000 0.980785
v -0.382683 -0.020000 0.923880
v -0.382683 0.020000 0.923880
v -0.555570 -0.020000 0.831470
v -0.555570 0.020000 0.831470
v -0.707107 -0.020000 0.707107
v -0.707107 0.020000 0.707107
v -0.831470 -0.020000 0.555570
v -0.831470 0.020000 0.555570
v -0.923880 -0.020000 0.382683
v -0.923880 0.020000 0.382683
v -0.980785 -0.020000 0.195090
v -0.980785 0.020000 0.195090
v -1.000000 -0.020000 0.000000
v -1.000000 0.020000 0.000000
v -0.980785 -0.020000 -0.195090
v -0.980785 0.020000 -0.195090
v -0.923880 -0.020000 -0.382683
v -0.923880 0.020000 -0.382683
v -0.831470 -0.020000 -0.555570
v -0.831470 0.020000 -0.555570
v -0.707107 -0.020000 -0.707107
v -0.707107 0.020000 -0.707107
v -0.555570 -0.020000 -0.831470
v -0.555570 0.020000 -0.831470
v -0.382683 -0.020000 -0.923880
v -0.382683 0.020000 -0.923880
v -0.195090 -0.020000 -0.980785
v -0.195090 0.020000 -0.980785
v 0.000000 0.004175 -0.977865
v 0.190772 0.004175 -0.959075
v 0.374213 0.004175 -0.903429
v 0.543273 0.004175 -0.813065
v 0.691455 0.004175 -0.691455
v 0.813065 0.004175 -0.543273
v 0.903429 0.004175 -0.374213
v 0.959075 0.004175 -0.190772
v 0.977865 0.004175 0.000000
v 0.959075 0.004175 0.190772
v 0.903429 0.004175 0.374213
v 0.813065 0.004175 0.543273
v 0.691455 0.004175 0.691455
v 0.543273 0.004175 0.813065
v 0.374213 0.004175 0.903429
v 0.190772 0.004175 0.959075
v 0.000000 0.004175 0.977865
v -0.190772 0.004175 0.959075
v -0.374213 0.004175 0.903429
v -0.543273 0.004175 0.813065
v -0.691455 0.004175 0.691455
v -0.813065 0.004175 0.543273
v -0.903429 0.004175 0.374213
v -0.959075 0.004175 0.190772
v -0.977865 0.004175 0.000000
v -0.959075 0.004175 -0.190772
v -0.903429 0.004175 -0.374213
v -0.813065 0.004175 -0.543273
v -0.691455 0.004175 -0.691455
v -0.543273 0.004175 -0.813065
v -0.374213 0.004175 -0.903429
v -0.190772 0.004175 -0.959075
v 0.190772 0.004035 -0.959075
v 0.000000 0.004035 -0.977865
v 0.374213 0.004035 -0.903429
v 0.543273 0.004035 -0.813065
v 0.691455 0.004035 -0.691455
v 0.813065 0.004035 -0.543273
v 0.903429 0.004035 -0.374213
v 0.959075 0.004035 -0.190772
v 0.977865 0.004035 0.000000
v 0.959075 0.004035 0.190772
v 0.903429 0.004035 0.374213
v 0.813065 0.004035 0.543273
v 0.691455 0.004035 0.691455
v 0.543273 0.004035 0.813065
v 0.374213 0.004035 0.903429
v 0.190772 0.004035 0.959075
v 0.000000 0.004035 0.977865
v -0.190772 0.004035 0.959075
v -0.374213 0.004035 0.903429
v -0.543273 0.004035 0.813065
v -0.691455 0.004035 0.691455
v -0.813065 0.004035 0.543273
v -0.903429 0.004035 0.374213
v -0.959075 0.004035 0.190772
v -0.977865 0.004035 0.000000
v -0.959075 0.004035 -0.190772
v -0.903429 0.004035 -0.374213
v -0.813065 0.004035 -0.543273
v -0.691455 0.004035 -0.691455
v -0.543273 0.004035 -0.813065
v -0.374213 0.004035 -0.903429
v -0.190772 0.004035 -0.959075
vn 0.0980 -0.0000 -0.9952
vn 0.2903 -0.0000 -0.9569
vn 0.4714 -0.0000 -0.8819
vn 0.6344 -0.0000 -0.7730
vn 0.7730 -0.0000 -0.6344
vn 0.8819 -0.0000 -0.4714
vn 0.9569 -0.0000 -0.2903
vn 0.9952 -0.0000 -0.0980
vn 0.9952 -0.0000 0.0980
vn 0.9569 -0.0000 0.2903
vn 0.8819 -0.0000 0.4714
vn 0.7730 -0.0000 0.6344
vn 0.6344 -0.0000 0.7730
vn 0.4714 -0.0000 0.8819
vn 0.2903 -0.0000 0.9569
vn 0.0980 -0.0000 0.9952
vn -0.0980 -0.0000 0.9952
vn -0.2903 -0.0000 0.9569
vn -0.4714 -0.0000 0.8819
vn -0.6344 -0.0000 0.7730
vn -0.7730 -0.0000 0.6344
vn -0.8819 -0.0000 0.4714
vn -0.9569 -0.0000 0.2903
vn -0.9952 -0.0000 0.0980
vn -0.9952 -0.0000 -0.0980
vn -0.9569 -0.0000 -0.2903
vn -0.8819 -0.0000 -0.4714
vn -0.7730 -0.0000 -0.6344
vn -0.6344 -0.0000 -0.7730
vn -0.4714 -0.0000 -0.8819
vn -0.2903 -0.0000 -0.9569
vn -0.0980 -0.0000 -0.9952
vn -0.0000 -1.0000 -0.0000
vn -0.0000 1.0000 -0.0000
vt 0.750000 0.484687
vt 0.250000 0.484687
vt 0.795785 0.480178
vt 0.295785 0.480178
vt 0.839811 0.466823
vt 0.339811 0.466823
vt 0.880385 0.445136
vt 0.380385 0.445136
vt 0.915949 0.415949
vt 0.415949 0.415949
vt 0.945135 0.380385
vt 0.445136 0.380385
vt 0.966823 0.339811
vt 0.466823 0.339811
vt 0.980178 0.295785
vt 0.480178 0.295785
vt 0.984687 0.250000
vt 0.484688 0.250000
vt 0.980178 0.204215
vt 0.480178 0.204215
vt 0.966823 0.160189
vt 0.466823 0.160189
vt 0.945135 0.119615
vt 0.445136 0.119615
vt 0.915949 0.084051
vt 0.415949 0.084051
vt 0.880385 0.054864
vt 0.380385 0.054864
vt 0.839811 0.033177
vt 0.339811 0.033177
vt 0.795785 0.019822
vt 0.295785 0.019822
vt 0.750000 0.015312
vt 0.250000 0.015312
vt 0.704215 0.019822
vt 0.204215 0.019822
vt 0.660189 0.033177
vt 0.160189 0.033177
vt 0.619614 0.054864
vt 0.119615 0.054864
vt 0.584051 0.084051
vt 0.084051 0.084051
vt 0.554864 0.119615
vt 0.054864 0.119615
vt 0.533177 0.160189
vt 0.033177 0.160189
vt 0.519822 0.204215
vt 0.019822 0.204215
vt 0.515312 0.250000
vt 0.015312 0.250000
vt 0.519822 0.295785
vt 0.019822 0.295785
vt 0.533177 0.339811
vt 0.033177 0.339811
vt 0.554864 0.380385
vt 0.054864 0.380385
vt 0.584051 0.415949
vt 0.084051 0.415949
vt 0.619615 0.445136
vt 0.119615 0.445136
vt 0.660189 0.466823
vt 0.160189 0.466823
vt 0.704215 0.480178
vt 0.204215 0.480178
vt 1.000000 0.500000
vt 0.000000 0.500000
vt 0.750000 0.490000
vt 0.968750 0.500000
vt 0.796822 0.485388
vt 0.968750 1.000000
vt 0.296822 0.485388
vt 1.000000 1.000000
vt 0.000000 1.000000
vt 0.250000 0.490000
vt 0.937500 0.500000
vt 0.841844 0.471731
vt 0.937500 1.000000
vt 0.341844 0.471731
vt 0.906250 0.500000
vt 0.883337 0.449553
vt 0.906250 1.000000
vt 0.383337 0.449553
vt 0.875000 0.500000
vt 0.919706 0.419706
vt 0.875000 1.000000
vt 0.419706 0.419706
vt 0.843750 0.500000
vt 0.949553 0.383337
vt 0.843750 1.000000
vt 0.449553 0.383337
vt 0.812500 0.500000
vt 0.971731 0.341844
vt 0.812500 1.000000
vt 0.471731 0.341844
vt 0.781250 0.500000
vt 0.985388 0.296822
vt 0.781250 1.000000
vt 0.485388 0.296822
vt 0.750000 0.500000
vt 0.990000 0.250000
vt 0.750000 1.000000
vt 0.490000 0.250000
vt 0.718750 0.500000
vt 0.985388 0.203178
vt 0.718750 1.000000
vt 0.485388 0.203178
vt 0.687500 0.500000
vt 0.971731 0.158156
vt 0.687500 1.000000
vt 0.471731 0.158156
vt 0.656250 0.500000
vt 0.949553 0.116663
vt 0.656250 1.000000
vt 0.449553 0.116663
vt 0.625000 0.500000
vt 0.919706 0.080294
vt 0.625000 1.000000
vt 0.419706 0.080294
vt 0.593750 0.500000
vt 0.883337 0.050447
vt 0.593750 1.000000
vt 0.383337 0.050447
vt 0.562500 0.500000
vt 0.841844 0.028269
vt 0.562500 1.000000
vt 0.341844 0.028269
vt 0.531250 0.500000
vt 0.796822 0.014612
vt 0.531250 1.000000
vt 0.296822 0.014612
vt 0.500000 0.500000
vt 0.750000 0.010000
vt 0.500000 1.000000
vt 0.250000 0.010000
vt 0.468750 0.500000
vt 0.703178 0.014612
vt 0.468750 1.000000
vt 0.203178 0.014612
vt 0.437500 0.500000
vt 0.658156 0.028269
vt 0.437500 1.000000
vt 0.158156 0.028269
vt 0.406250 0.500000
vt 0.616663 0.050447
vt 0.406250 1.000000
vt 0.116663 0.050447
vt 0.375000 0.500000
vt 0.580294 0.080294
vt 0.375000 1.000000
vt 0.080294 0.080294
vt 0.343750 0.500000
vt 0.550447 0.116663
vt 0.343750 1.000000
vt 0.050447 0.116663
vt 0.312500 0.500000
vt 0.528269 0.158156
vt 0.312500 1.000000
vt 0.028269 0.158156
vt 0.281250 0.500000
vt 0.514612 0.203178
vt 0.281250 1.000000
vt 0.014612 0.203178
vt 0.250000 0.500000
vt 0.510000 0.250000
vt 0.250000 1.000000
vt 0.010000 0.250000
vt 0.218750 0.500000
vt 0.514612 0.296822
vt 0.218750 1.000000
vt 0.014612 0.296822
vt 0.187500 0.500000
vt 0.528269 0.341844
vt 0.187500 1.000000
vt 0.028269 0.341844
vt 0.156250 0.500000
vt 0.550447 0.383337
vt 0.156250 1.000000
vt 0.050447 0.383337
vt 0.125000 0.500000
vt 0.580294 0.419706
vt 0.125000 1.000000
vt 0.080294 0.419706
vt 0.093750 0.500000
vt 0.616663 0.449553
vt 0.093750 1.000000
vt 0.116663 0.449553
vt 0.062500 0.500000
vt 0.658156 0.471731
vt 0.062500 1.000000
vt 0.158156 0.471731
vt 0.031250 0.500000
vt 0.703178 0.485388
vt 0.031250 1.000000
vt 0.203178 0.485388
vt 0.750000 0.484687
vt 0.795785 0.480178
vt 0.839811 0.466823
vt 0.880385 0.445136
vt 0.915949 0.415949
vt 0.945135 0.380385
vt 0.966823 0.339811
vt 0.980178 0.295785
vt 0.984687 0.250000
vt 0.980178 0.204215
vt 0.966823 0.160189
vt 0.945135 0.119615
vt 0.915949 0.084051
vt 0.880385 0.054864
vt 0.839811 0.033177
vt 0.795785 0.019822
vt 0.750000 0.015312
vt 0.704215 0.019822
vt 0.660189 0.033177
vt 0.619614 0.054864
vt 0.584051 0.084051
vt 0.554864 0.119615
vt 0.533177 0.160189
vt 0.519822 0.204215
vt 0.515312 0.250000
vt 0.519822 0.295785
vt 0.533177 0.339811
vt 0.554864 0.380385
vt 0.584051 0.415949
vt 0.619615 0.445136
vt 0.660189 0.466823
vt 0.704215 0.480178
vt 0.295785 0.480178
vt 0.250000 0.484687
vt 0.339811 0.466823
vt 0.380385 0.445136
vt 0.415949 0.415949
vt 0.445136 0.380385
vt 0.466823 0.339811
vt 0.480178 0.295785
vt 0.484688 0.250000
vt 0.480178 0.204215
vt 0.466823 0.160189
vt 0.445136 0.119615
vt 0.415949 0.084051
vt 0.380385 0.054864
vt 0.339811 0.033177
vt 0.295785 0.019822
vt 0.250000 0.015312
vt 0.204215 0.019822
vt 0.160189 0.033177
vt 0.119615 0.054864
vt 0.084051 0.084051
vt 0.054864 0.119615
vt 0.033177 0.160189
vt 0.019822 0.204215
vt 0.015312 0.250000
vt 0.019822 0.295785
vt 0.033177 0.339811
vt 0.054864 0.380385
vt 0.084051 0.415949
vt 0.119615 0.445136
vt 0.160189 0.466823
vt 0.204215 0.480178
s 0
f 68/72/1 66/68/1 65/65/1
f 67/70/2 69/75/2 66/68/2
f 70/77/3 71/79/3 69/75/3
f 72/81/4 73/83/4 71/79/4
f 74/85/5 75/87/5 73/83/5
f 76/89/6 77/91/6 75/87/6
f 78/93/7 79/95/7 77/91/7
f 80/97/8 81/99/8 79/95/8
f 82/101/9 83/103/9 81/99/9
f 84/105/10 85/107/10 83/103/10
f 86/109/11 87/111/11 85/107/11
f 88/113/12 89/115/12 87/111/12
f 90/117/13 91/119/13 89/115/13
f 92/121/14 93/123/14 91/119/14
f 94/125/15 95/127/15 93/123/15
f 96/129/16 97/131/16 95/127/16
f 98/133/17 99/135/17 97/131/17
f 100/137/18 101/139/18 99/135/18
f 102/141/19 103/143/19 101/139/19
f 104/145/20 105/147/20 103/143/20
f 106/149/21 107/151/21 105/147/21
f 108/153/22 109/155/22 107/151/22
f 110/157/23 111/159/23 109/155/23
f 112/161/24 113/163/24 111/159/24
f 114/165/25 115/167/25 113/163/25
f 116/169/26 117/171/26 115/167/26
f 118/173/27 119/175/27 117/171/27
f 120/177/28 121/179/28 119/175/28
f 122/181/29 123/183/29 121/179/29
f 124/185/30 125/187/30 123/183/30
f 38/38/3 180/246/3 40/40/3
f 126/189/31 127/191/31 125/187/31
f 128/193/32 65/66/32 127/191/32
f 27/27/29 141/207/29 25/25/29
f 1/1/33 66/69/33 3/3/33
f 4/4/34 68/74/34 2/2/34
f 3/3/33 69/76/33 5/5/33
f 4/4/34 70/78/34 67/71/34
f 5/5/33 71/80/33 7/7/33
f 8/8/34 70/78/34 6/6/34
f 7/7/33 73/84/33 9/9/33
f 10/10/34 72/82/34 8/8/34
f 9/9/33 75/88/33 11/11/33
f 12/12/34 74/86/34 10/10/34
f 11/11/33 77/92/33 13/13/33
f 14/14/34 76/90/34 12/12/34
f 15/15/33 77/92/33 79/96/33
f 16/16/34 78/94/34 14/14/34
f 15/15/33 81/100/33 17/17/33
f 18/18/34 80/98/34 16/16/34
f 17/17/33 83/104/33 19/19/33
f 20/20/34 82/102/34 18/18/34
f 19/19/33 85/108/33 21/21/33
f 20/20/34 86/110/34 84/106/34
f 21/21/33 87/112/33 23/23/33
f 24/24/34 86/110/34 22/22/34
f 23/23/33 89/116/33 25/25/33
f 26/26/34 88/114/34 24/24/34
f 25/25/33 91/120/33 27/27/33
f 28/28/34 90/118/34 26/26/34
f 27/27/33 93/124/33 29/29/33
f 30/30/34 92/122/34 28/28/34
f 31/31/33 93/124/33 95/128/33
f 32/32/34 94/126/34 30/30/34
f 31/31/33 97/132/33 33/33/33
f 34/34/34 96/130/34 32/32/34
f 33/33/33 99/136/33 35/35/33
f 36/36/34 98/134/34 34/34/34
f 35/35/33 101/140/33 37/37/33
f 36/36/34 102/142/34 100/138/34
f 37/37/33 103/144/33 39/39/33
f 40/40/34 102/142/34 38/38/34
f 39/39/33 105/148/33 41/41/33
f 42/42/34 104/146/34 40/40/34
f 41/41/33 107/152/33 43/43/33
f 44/44/34 106/150/34 42/42/34
f 43/43/33 109/156/33 45/45/33
f 46/46/34 108/154/34 44/44/34
f 47/47/33 109/156/33 111/160/33
f 48/48/34 110/158/34 46/46/34
f 47/47/33 113/164/33 49/49/33
f 50/50/34 112/162/34 48/48/34
f 49/49/33 115/168/33 51/51/33
f 52/52/34 114/166/34 50/50/34
f 51/51/33 117/172/33 53/53/33
f 52/52/34 118/174/34 116/170/34
f 53/53/33 119/176/33 55/55/33
f 56/56/34 118/174/34 54/54/34
f 55/55/33 121/180/33 57/57/33
f 58/58/34 120/178/34 56/56/34
f 57/57/33 123/184/33 59/59/33
f 60/60/34 122/182/34 58/58/34
f 59/59/33 125/188/33 61/61/33
f 62/62/34 124/186/34 60/60/34
f 63/63/33 125/188/33 127/192/33
f 64/64/34 126/190/34 62/62/34
f 63/63/33 65/67/33 1/1/33
f 2/2/34 128/194/34 64/64/34
f 41/41/4 148/214/4 39/39/4
f 55/55/11 155/221/11 53/53/11
f 15/15/23 135/201/23 13/13/23
f 29/29/30 142/208/30 27/27/30
f 43/43/5 149/215/5 41/41/5
f 3/3/17 129/195/17 1/1/17
f 57/57/12 156/222/12 55/55/12
f 17/17/24 136/202/24 15/15/24
f 31/31/31 143/209/31 29/29/31
f 45/45/6 150/216/6 43/43/6
f 5/5/18 130/196/18 3/3/18
f 59/59/13 157/223/13 57/57/13
f 19/19/25 137/203/25 17/17/25
f 33/33/32 144/210/32 31/31/32
f 47/47/7 151/217/7 45/45/7
f 7/7/19 131/197/19 5/5/19
f 61/61/14 158/224/14 59/59/14
f 21/21/26 138/204/26 19/19/26
f 35/35/1 145/211/1 33/33/1
f 49/49/8 152/218/8 47/47/8
f 9/9/20 132/198/20 7/7/20
f 63/63/15 159/225/15 61/61/15
f 23/23/27 139/205/27 21/21/27
f 37/37/2 146/212/2 35/35/2
f 51/51/9 153/219/9 49/49/9
f 11/11/21 133/199/21 9/9/21
f 1/1/16 160/226/16 63/63/16
f 25/25/28 140/206/28 23/23/28
f 39/39/3 147/213/3 37/37/3
f 53/53/10 154/220/10 51/51/10
f 13/13/22 134/200/22 11/11/22
f 52/52/10 187/253/10 54/54/10
f 12/12/22 167/233/22 14/14/22
f 26/26/29 174/240/29 28/28/29
f 40/40/4 181/247/4 42/42/4
f 54/54/11 188/254/11 56/56/11
f 14/14/23 168/234/23 16/16/23
f 28/28/30 175/241/30 30/30/30
f 42/42/5 182/248/5 44/44/5
f 2/2/17 161/227/17 4/4/17
f 56/56/12 189/255/12 58/58/12
f 16/16/24 169/235/24 18/18/24
f 30/30/31 176/242/31 32/32/31
f 44/44/6 183/249/6 46/46/6
f 4/4/18 163/229/18 6/6/18
f 58/58/13 190/256/13 60/60/13
f 18/18/25 170/236/25 20/20/25
f 32/32/32 177/243/32 34/34/32
f 46/46/7 184/250/7 48/48/7
f 6/6/19 164/230/19 8/8/19
f 60/60/14 191/257/14 62/62/14
f 20/20/26 171/237/26 22/22/26
f 34/34/1 178/244/1 36/36/1
f 48/48/8 185/251/8 50/50/8
f 8/8/20 165/231/20 10/10/20
f 62/62/15 192/258/15 64/64/15
f 22/22/27 172/238/27 24/24/27
f 36/36/2 179/245/2 38/38/2
f 50/50/9 186/252/9 52/52/9
f 10/10/21 166/232/21 12/12/21
f 64/64/16 162/228/16 2/2/16
f 24/24/28 173/239/28 26/26/28
f 68/72/1 67/70/1 66/68/1
f 67/70/2 70/77/2 69/75/2
f 70/77/3 72/81/3 71/79/3
f 72/81/4 74/85/4 73/83/4
f 74/85/5 76/89/5 75/87/5
f 76/89/6 78/93/6 77/91/6
f 78/93/7 80/97/7 79/95/7
f 80/97/8 82/101/8 81/99/8
f 82/101/9 84/105/9 83/103/9
f 84/105/10 86/109/10 85/107/10
f 86/109/11 88/113/11 87/111/11
f 88/113/12 90/117/12 89/115/12
f 90/117/13 92/121/13 91/119/13
f 92/121/14 94/125/14 93/123/14
f 94/125/15 96/129/15 95/127/15
f 96/129/16 98/133/16 97/131/16
f 98/133/17 100/137/17 99/135/17
f 100/137/18 102/141/18 101/139/18
f 102/141/19 104/145/19 103/143/19
f 104/145/20 106/149/20 105/147/20
f 106/149/21 108/153/21 107/151/21
f 108/153/22 110/157/22 109/155/22
f 110/157/23 112/161/23 111/159/23
f 112/161/24 114/165/24 113/163/24
f 114/165/25 116/169/25 115/167/25
f 116/169/26 118/173/26 117/171/26
f 118/173/27 120/177/27 119/175/27
f 120/177/28 122/181/28 121/179/28
f 122/181/29 124/185/29 123/183/29
f 124/185/30 126/189/30 125/187/30
f 38/38/3 179/245/3 180/246/3
f 126/189/31 128/193/31 127/191/31
f 128/193/32 68/73/32 65/66/32
f 27/27/29 142/208/29 141/207/29
f 1/1/33 65/67/33 66/69/33
f 4/4/34 67/71/34 68/74/34
f 3/3/33 66/69/33 69/76/33
f 4/4/34 6/6/34 70/78/34
f 5/5/33 69/76/33 71/80/33
f 8/8/34 72/82/34 70/78/34
f 7/7/33 71/80/33 73/84/33
f 10/10/34 74/86/34 72/82/34
f 9/9/33 73/84/33 75/88/33
f 12/12/34 76/90/34 74/86/34
f 11/11/33 75/88/33 77/92/33
f 14/14/34 78/94/34 76/90/34
f 15/15/33 13/13/33 77/92/33
f 16/16/34 80/98/34 78/94/34
f 15/15/33 79/96/33 81/100/33
f 18/18/34 82/102/34 80/98/34
f 17/17/33 81/100/33 83/104/33
f 20/20/34 84/106/34 82/102/34
f 19/19/33 83/104/33 85/108/33
f 20/20/34 22/22/34 86/110/34
f 21/21/33 85/108/33 87/112/33
f 24/24/34 88/114/34 86/110/34
f 23/23/33 87/112/33 89/116/33
f 26/26/34 90/118/34 88/114/34
f 25/25/33 89/116/33 91/120/33
f 28/28/34 92/122/34 90/118/34
f 27/27/33 91/120/33 93/124/33
f 30/30/34 94/126/34 92/122/34
f 31/31/33 29/29/33 93/124/33
f 32/32/34 96/130/34 94/126/34
f 31/31/33 95/128/33 97/132/33
f 34/34/34 98/134/34 96/130/34
f 33/33/33 97/132/33 99/136/33
f 36/36/34 100/138/34 98/134/34
f 35/35/33 99/136/33 101/140/33
f 36/36/34 38/38/34 102/142/34
f 37/37/33 101/140/33 103/144/33
f 40/40/34 104/146/34 102/142/34
f 39/39/33 103/144/33 105/148/33
f 42/42/34 106/150/34 104/146/34
f 41/41/33 105/148/33 107/152/33
f 44/44/34 108/154/34 106/150/34
f 43/43/33 107/152/33 109/156/33
f 46/46/34 110/158/34 108/154/34
f 47/47/33 45/45/33 109/156/33
f 48/48/34 112/162/34 110/158/34
f 47/47/33 111/160/33 113/164/33
f 50/50/34 114/166/34 112/162/34
f 49/49/33 113/164/33 115/168/33
f 52/52/34 116/170/34 114/166/34
f 51/51/33 115/168/33 117/172/33
f 52/52/34 54/54/34 118/174/34
f 53/53/33 117/172/33 119/176/33
f 56/56/34 120/178/34 118/174/34
f 55/55/33 119/176/33 121/180/33
f 58/58/34 122/182/34 120/178/34
f 57/57/33 121/180/33 123/184/33
f 60/60/34 124/186/34 122/182/34
f 59/59/33 123/184/33 125/188/33
f 62/62/34 126/190/34 124/186/34
f 63/63/33 61/61/33 125/188/33
f 64/64/34 128/194/34 126/190/34
f 63/63/33 127/192/33 65/67/33
f 2/2/34 68/74/34 128/194/34
f 41/41/4 149/215/4 148/214/4
f 55/55/11 156/222/11 155/221/11
f 15/15/23 136/202/23 135/201/23
f 29/29/30 143/209/30 142/208/30
f 43/43/5 150/216/5 149/215/5
f 3/3/17 130/196/17 129/195/17
f 57/57/12 157/223/12 156/222/12
f 17/17/24 137/203/24 136/202/24
f 31/31/31 144/210/31 143/209/31
f 45/45/6 151/217/6 150/216/6
f 5/5/18 131/197/18 130/196/18
f 59/59/13 158/224/13 157/223/13
f 19/19/25 138/204/25 137/203/25
f 33/33/32 145/211/32 144/210/32
f 47/47/7 152/218/7 151/217/7
f 7/7/19 132/198/19 131/197/19
f 61/61/14 159/225/14 158/224/14
f 21/21/26 139/205/26 138/204/26
f 35/35/1 146/212/1 145/211/1
f 49/49/8 153/219/8 152/218/8
f 9/9/20 133/199/20 132/198/20
f 63/63/15 160/226/15 159/225/15
f 23/23/27 140/206/27 139/205/27
f 37/37/2 147/213/2 146/212/2
f 51/51/9 154/220/9 153/219/9
f 11/11/21 134/200/21 133/199/21
f 1/1/16 129/195/16 160/226/16
f 25/25/28 141/207/28 140/206/28
f 39/39/3 148/214/3 147/213/3
f 53/53/10 155/221/10 154/220/10
f 13/13/22 135/201/22 134/200/22
f 52/52/10 186/252/10 187/253/10
f 12/12/22 166/232/22 167/233/22
f 26/26/29 173/239/29 174/240/29
f 40/40/4 180/246/4 181/247/4
f 54/54/11 187/253/11 188/254/11
f 14/14/23 167/233/23 168/234/23
f 28/28/30 174/240/30 175/241/30
f 42/42/5 181/247/5 182/248/5
f 2/2/17 162/228/17 161/227/17
f 56/56/12 188/254/12 189/255/12
f 16/16/24 168/234/24 169/235/24
f 30/30/31 175/241/31 176/242/31
f 44/44/6 182/248/6 183/249/6
f 4/4/18 161/227/18 163/229/18
f 58/58/13 189/255/13 190/256/13
f 18/18/25 169/235/25 170/236/25
f 32/32/32 176/242/32 177/243/32
f 46/46/7 183/249/7 184/250/7
f 6/6/19 163/229/19 164/230/19
f 60/60/14 190/256/14 191/257/14
f 20/20/26 170/236/26 171/237/26
f 34/34/1 177/243/1 178/244/1
f 48/48/8 184/250/8 185/251/8
f 8/8/20 164/230/20 165/231/20
f 62/62/15 191/257/15 192/258/15
f 22/22/27 171/237/27 172/238/27
f 36/36/2 178/244/2 179/245/2
f 50/50/9 185/251/9 186/252/9
f 10/10/21 165/231/21 166/232/21
f 64/64/16 192/258/16 162/228/16
f 24/24/28 172/238/28 173/239/28
