<svg id="合并" xmlns="http://www.w3.org/2000/svg" viewBox="0 0 1299.6 1299.63"><defs><style>.cls-1{fill:none;}</style></defs><path class="cls-1" d="M479.34,143.67H445.7q8.355-.435,16.82-.44T479.34,143.67Z" transform="translate(-68.9 -69.62)"/><path class="cls-1" d="M782.55,463.25A320.271,320.271,0,0,1,589.3,757.17q-5.49,2.385-11.09,4.54-4.785-2.355-9.66-4.54A318.326,318.326,0,0,0,450.5,729.46v-.48A266.221,266.221,0,0,1,462.38,196.8c113.4,0,210.23,70.9,248.6,170.78V261.54A318.654,318.654,0,0,1,782.55,463.25Z" transform="translate(-68.9 -69.62)"/><path class="cls-1" d="M710.98,162.89Q699.19,152.8,686.6,143.67A389.435,389.435,0,0,0,145.48,227c-.84,1.13-1.67,2.26-2.5,3.4a389.429,389.429,0,0,0,0,456.99c.82,1.14,1.66,2.27,2.5,3.4a391.54,391.54,0,0,0,53,58.1q4.71,4.23,9.55,8.28,12.765,10.74,26.45,20.34,8.34,5.88,16.99,11.3a390.132,390.132,0,0,0,332.99,38.41A264.786,264.786,0,0,0,449.5,783.29v-.28a318.359,318.359,0,0,1-113.76-25.84q-7.05-3.03-13.91-6.41A320.29,320.29,0,0,1,145.48,507.1q-1.785-12.99-2.5-26.32-.48-8.7-.48-17.53t.48-17.53q.705-13.305,2.5-26.32a318.166,318.166,0,0,1,53-137.02A320.4,320.4,0,0,1,445.7,143.67h33.64A319.349,319.349,0,0,1,710.98,261.54V367.58C672.61,267.7,575.78,196.8,462.38,196.8A266.221,266.221,0,0,0,450.5,728.98v.48a318.326,318.326,0,0,1,118.05,27.71q4.875,2.19,9.66,4.54a319.635,319.635,0,0,1,63.11,40.77,389.335,389.335,0,0,0,66.99-45.31c.89-.74,1.78-1.49,2.67-2.26,83.53-71.39,136.47-177.52,136.47-296.01S794.51,234.28,710.98,162.89Z" transform="translate(-68.9 -69.62)"/><path class="cls-1" d="M463.93,1368.17q-13.065,1.08-26.41,1.08t-26.41-1.08Z" transform="translate(-68.9 -69.62)"/><path class="cls-1" d="M145.48,918.17v262.11c-.85-1.9-1.69-3.8-2.5-5.72a321.023,321.023,0,0,1,0-250.68C143.79,921.97,144.63,920.06,145.48,918.17Z" transform="translate(-68.9 -69.62)"/><path class="cls-1" d="M703.74,1049.24c0,119.08-78.19,219.91-186.03,253.93a266.09,266.09,0,0,1-283.23-81.72v75.15a321.472,321.472,0,0,1-36-34.59V836.44a321.472,321.472,0,0,1,36-34.59q8.265-6.81,16.99-13.04a319.33,319.33,0,0,1,55.02-31.64q7.56-3.4,15.34-6.41,6.855,3.375,13.91,6.41A318.359,318.359,0,0,0,449.5,783.01v.28a266.159,266.159,0,0,1,254.24,265.95Z" transform="translate(-68.9 -69.62)"/><path class="cls-1" d="M703.74,1049.24c0,119.08-78.19,219.91-186.03,253.93a266.578,266.578,0,0,1-319.23-136.59V931.9A266.143,266.143,0,0,1,437.51,783.02q6.03,0,11.99.27a266.159,266.159,0,0,1,254.24,265.95Z" transform="translate(-68.9 -69.62)"/><path class="cls-1" d="M728.6,463.02a265.566,265.566,0,0,1-17.62,95.44c-38.37,99.89-135.2,170.79-248.6,170.79q-5.97,0-11.88-.27A266.221,266.221,0,0,1,462.38,196.8c113.4,0,210.23,70.9,248.6,170.78A265.607,265.607,0,0,1,728.6,463.02Z" transform="translate(-68.9 -69.62)"/><path d="M757.54,1049.22a320.009,320.009,0,0,1-293.6,318.949H411.1a318.3,318.3,0,0,1-168.351-65h0a21.135,21.135,0,0,1-8.27-16.769v-44.362a8.015,8.015,0,0,1,13.744-5.6A266.584,266.584,0,0,0,517.71,1303.17c107.84-34.02,186.03-134.85,186.03-253.93A266.159,266.159,0,0,0,449.5,783.29v-.28a318.359,318.359,0,0,1-113.76-25.84q-7.05-3.03-13.91-6.41A320.29,320.29,0,0,1,145.48,507.1q-1.785-12.99-2.5-26.32-.48-8.7-.48-17.53t.48-17.53q.705-13.305,2.5-26.32a318.166,318.166,0,0,1,53-137.02A320.4,320.4,0,0,1,445.7,143.67h33.64a319.217,319.217,0,0,1,225.2,110.188,26.229,26.229,0,0,1,6.445,17.159v69.5c0,6.017-8.123,8-10.836,2.627C656.288,256.331,566.291,196.8,462.38,196.8A266.221,266.221,0,0,0,450.5,728.98v.48a318.326,318.326,0,0,1,118.05,27.71q4.875,2.19,9.66,4.54a320,320,0,0,1,179.33,287.51Z" transform="translate(-68.9 -69.62)"/><path class="cls-1" d="M1367.48,143.67v.5h-53v366.3l-.43.63a197.858,197.858,0,0,1-175.57,192.17c-.12.01-.24.03-.36.04-2.04.23-4.08.42-6.14.58q-7.9.645-15.97.64a199.548,199.548,0,0,1-30.53-2.34q-9.78-1.515-19.22-3.96A198.206,198.206,0,0,1,919.48,531.5c-.13-1.02-.25-2.03-.36-3.05V143.67Z" transform="translate(-68.9 -69.62)"/><path class="cls-1" d="M866.48,771.29a46.991,46.991,0,1,0,27.68,42.84A46.841,46.841,0,0,0,866.48,771.29Zm0,0a46.991,46.991,0,1,0,27.68,42.84A46.841,46.841,0,0,0,866.48,771.29Zm0,0a46.991,46.991,0,1,0,27.68,42.84A46.841,46.841,0,0,0,866.48,771.29Zm0,0a46.991,46.991,0,1,0,27.68,42.84A46.841,46.841,0,0,0,866.48,771.29Zm0,0a46.991,46.991,0,1,0,27.68,42.84A46.841,46.841,0,0,0,866.48,771.29Zm0,0a46.991,46.991,0,1,0,27.68,42.84A46.841,46.841,0,0,0,866.48,771.29Zm0,0a46.991,46.991,0,1,0,27.68,42.84A46.841,46.841,0,0,0,866.48,771.29Zm0,0a46.991,46.991,0,1,0,27.68,42.84A46.841,46.841,0,0,0,866.48,771.29Zm0,0a46.991,46.991,0,1,0,27.68,42.84A46.841,46.841,0,0,0,866.48,771.29Zm0,0a46.991,46.991,0,1,0,27.68,42.84A46.841,46.841,0,0,0,866.48,771.29Zm448,531.88V658.83a250.477,250.477,0,0,1-121.82,85.92l-.09.03q-10.635,3.42-21.69,5.88a245.721,245.721,0,0,1-25.03,4.26c-2.45.29-4.9.55-7.37.76-.12.01-.24.03-.36.03q-3.03.27-6.09.46-7.83.48-15.78.49a251.949,251.949,0,0,1-30.77-1.88,248.444,248.444,0,0,1-133.6-59.83,250.934,250.934,0,0,1-32.4-34.22c-.13-.16-.25-.31-.36-.47A248.576,248.576,0,0,1,866.5,507.5l-.02.02V143.67H479.34A319.349,319.349,0,0,1,710.98,261.54V367.58C672.61,267.7,575.78,196.8,462.38,196.8A266.221,266.221,0,0,0,450.5,728.98v.48a318.326,318.326,0,0,1,118.05,27.71q4.875,2.19,9.66,4.54a320.069,320.069,0,0,1-114.28,606.46h903.55v-65Zm-229-403.16-133.6,193.67v-57.59l133.6-193.66,46.57-67.46.04,57.45v.12l.17,190.85v.07l.05,57.85.19,220.86h-47.02Zm85.4,124.93V967.02l109.24-159.65V865.3ZM897.32,757.17a75.845,75.845,0,0,1,21.8,32.71c.12.36.24.73.36,1.1a76.234,76.234,0,0,1,0,46.3c-.12.37-.24.74-.36,1.1a76,76,0,1,1-21.8-81.21Zm-30.84,546V990.4l52.64-76.99v389.52h.36v.24ZM800.19,814.13a47,47,0,1,0,46.98-46.98A46.982,46.982,0,0,0,800.19,814.13Zm66.29-42.84a46.991,46.991,0,1,0,27.68,42.84A46.841,46.841,0,0,0,866.48,771.29Zm0,0a46.991,46.991,0,1,0,27.68,42.84A46.841,46.841,0,0,0,866.48,771.29Zm0,0a46.991,46.991,0,1,0,27.68,42.84A46.841,46.841,0,0,0,866.48,771.29Zm0,0a46.991,46.991,0,1,0,27.68,42.84A46.841,46.841,0,0,0,866.48,771.29ZM142.98,143.67V445.72q.705-13.305,2.5-26.32a318.166,318.166,0,0,1,53-137.02A320.4,320.4,0,0,1,445.7,143.67Zm723.5,627.62a46.991,46.991,0,1,0,27.68,42.84A46.841,46.841,0,0,0,866.48,771.29Zm0,0a46.991,46.991,0,1,0,27.68,42.84A46.841,46.841,0,0,0,866.48,771.29ZM251.47,788.81q-8.715,6.24-16.99,13.04v75.18a267.447,267.447,0,0,1,71.94-59.55A386.034,386.034,0,0,1,251.47,788.81Zm332.99,38.41A264.786,264.786,0,0,0,449.5,783.29v-.28a318.359,318.359,0,0,1-113.76-25.84q-7.05-3.03-13.91-6.41A320.29,320.29,0,0,1,145.48,507.1q-1.785-12.99-2.5-26.32v887.39H411.11a318.307,318.307,0,0,1-168.36-65q-4.185-3.21-8.27-6.57v-75.15a266.571,266.571,0,0,0,283.23,81.72c107.84-34.02,186.03-134.85,186.03-253.93A265.953,265.953,0,0,0,584.46,827.22ZM198.48,1262.01a320.285,320.285,0,0,1-53-81.73V690.79a391.54,391.54,0,0,0,53,58.1q4.71,4.23,9.55,8.28,12.765,10.74,26.45,20.34,8.34,5.88,16.99,11.3-8.715,6.24-16.99,13.04a321.472,321.472,0,0,0-36,34.59Zm668-490.72a46.991,46.991,0,1,0,27.68,42.84A46.841,46.841,0,0,0,866.48,771.29Zm0,0a46.991,46.991,0,1,0,27.68,42.84A46.841,46.841,0,0,0,866.48,771.29Z" transform="translate(-68.9 -69.62)"/><line class="cls-1" x1="165.58" y1="531.1" x2="165.58" y2="255.7"/><polyline class="cls-1" points="165.58 1151.83 165.58 807.41 165.58 732.23"/><polyline class="cls-1" points="165.58 707.89 165.58 687.55 165.58 618.15"/><polyline class="cls-1" points="165.58 1226.98 165.58 1233.55 165.58 1298.55 165.58 1299.55"/><polyline class="cls-1" points="165.58 169.11 165.58 74.05 165.58 73.55"/><polyline class="cls-1" points="642.08 297.96 642.08 488.84 642.08 595.34 642.08 685.29 642.08 687.55 642.08 813.29"/><polyline class="cls-1" points="642.08 1145.92 642.08 1148.19 642.08 1233.55 642.08 1298.05"/><polyline class="cls-1" points="642.08 191.92 642.08 93.27 642.08 74.05 642.08 73.05"/><path class="cls-1" d="M198.48,145.17V282.38a318.166,318.166,0,0,0-53,137.02V145.17Z" transform="translate(-68.9 -69.62)"/><path class="cls-1" d="M198.48,427.68v70.68a269.173,269.173,0,0,1,0-70.68Z" transform="translate(-68.9 -69.62)"/><path d="M240,781.329a9.675,9.675,0,0,1,.582,15.626q-3.081,2.409-6.1,4.895a321.435,321.435,0,0,0-33.506,31.823,9.628,9.628,0,0,0-2.494,6.492v394.661c0,9.307-11.869,13.28-17.442,5.826a319.687,319.687,0,0,1-34.684-58.444,9.725,9.725,0,0,1-.874-4.044V718.431a9.684,9.684,0,0,1,17.043-6.3A391.6,391.6,0,0,0,198.48,748.89q4.71,4.23,9.55,8.28,12.765,10.74,26.45,20.34Q237.224,779.444,240,781.329Z" transform="translate(-68.9 -69.62)"/><path class="cls-1" d="M198.48,644.11V748.89a391.54,391.54,0,0,1-53-58.1V507.1A318.125,318.125,0,0,0,198.48,644.11Z" transform="translate(-68.9 -69.62)"/><path class="cls-1" d="M198.48,1262.01v107.16h-53V1180.28A320.285,320.285,0,0,0,198.48,1262.01Z" transform="translate(-68.9 -69.62)"/><path class="cls-1" d="M1314.1,506.44c0,1.56-.02,3.11-.05,4.66a197.858,197.858,0,0,1-175.57,192.17c-.12.01-.24.03-.36.04-2.04.23-4.08.42-6.14.58q-7.9.645-15.97.64a199.548,199.548,0,0,1-30.53-2.34q-9.78-1.515-19.22-3.96A198.206,198.206,0,0,1,919.48,531.5c-.13-1.02-.25-2.03-.36-3.05V484.43c.11-1.02.23-2.04.36-3.05a198.125,198.125,0,0,1,166-170.69,199.548,199.548,0,0,1,30.53-2.34q7.89,0,15.63.61,3.255.255,6.48.61c.12.01.24.03.36.04a197.564,197.564,0,0,1,138.18,80.92c1.18,1.62,2.33,3.27,3.46,4.93A197.2,197.2,0,0,1,1314.1,506.44Z" transform="translate(-68.9 -69.62)"/><path class="cls-1" d="M1314.48,355V510.47l-.43.63a197.858,197.858,0,0,1-175.57,192.17c-.12.01-.24.03-.36.04-2.04.23-4.08.42-6.14.58q-7.9.645-15.97.64a199.548,199.548,0,0,1-30.53-2.34q-9.78-1.515-19.22-3.96A198.206,198.206,0,0,1,919.48,531.5c-.13-1.02-.25-2.03-.36-3.05V353.57c.12-.16.24-.32.36-.47a251.549,251.549,0,0,1,32.4-34.22,248.644,248.644,0,0,1,133.6-59.83,251.949,251.949,0,0,1,30.77-1.88q7.74,0,15.35.47c2.18.13,4.36.29,6.52.48.12,0,.24.02.36.03a249.961,249.961,0,0,1,168.69,87.76C1309.67,348.88,1312.12,351.91,1314.48,355Z" transform="translate(-68.9 -69.62)"/><path d="M1367.48,152.041V1295.265a7.9,7.9,0,0,1-7.9,7.9h-37.224a7.871,7.871,0,0,1-7.871-7.871V669.282a3.666,3.666,0,0,0-6.483-2.348A250.56,250.56,0,0,1,1192.66,744.75l-.09.03q-10.635,3.42-21.69,5.88a245.721,245.721,0,0,1-25.03,4.26c-2.45.29-4.9.55-7.37.76-.12.01-.24.03-.36.03q-3.03.27-6.09.46-7.83.48-15.78.49a251.949,251.949,0,0,1-30.77-1.88,248.444,248.444,0,0,1-133.6-59.83,250.934,250.934,0,0,1-32.4-34.22c-.13-.16-.25-.31-.36-.47A248.576,248.576,0,0,1,866.5,507.5l-.02.02V151.541a7.871,7.871,0,0,1,7.871-7.871h36.9a7.871,7.871,0,0,1,7.871,7.871V528.006a8.159,8.159,0,0,0,.048.885c.1.871.2,1.736.312,2.609a198.206,198.206,0,0,0,146.78,166.73q9.435,2.445,19.22,3.96a199.548,199.548,0,0,0,30.53,2.34q8.07,0,15.97-.64c2.06-.16,4.1-.35,6.14-.58.12-.01.24-.03.36-.04A198.079,198.079,0,0,0,1314.05,511.1l.43-.63V152.041a7.871,7.871,0,0,1,7.871-7.871h37.258A7.871,7.871,0,0,1,1367.48,152.041Z" transform="translate(-68.9 -69.62)"/><path class="cls-1" d="M894.16,814.13a46.976,46.976,0,0,1-27.68,42.84V771.29A46.976,46.976,0,0,1,894.16,814.13Z" transform="translate(-68.9 -69.62)"/><path class="cls-1" d="M919.12,838.38c.12-.36.24-.73.36-1.1v465.65h-.36V913.41L866.48,990.4V887.55A76.05,76.05,0,0,0,919.12,838.38Z" transform="translate(-68.9 -69.62)"/><path class="cls-1" d="M919.48,660.73V790.98c-.12-.37-.24-.74-.36-1.1a76.147,76.147,0,0,0-52.64-49.17V507.52l.02-.02a248.576,248.576,0,0,0,52.62,152.76C919.23,660.42,919.35,660.57,919.48,660.73Z" transform="translate(-68.9 -69.62)"/><path class="cls-1" d="M919.48,143.17V531.5c-.13-1.02-.25-2.03-.36-3.05V143.67H866.48v-.5Z" transform="translate(-68.9 -69.62)"/><line class="cls-1" x1="1296.58" y1="687.55" x2="1285.22" y2="687.55"/><polyline class="cls-1" points="728.12 687.55 642.08 687.55 639.41 687.55 520.4 687.55 499.65 687.55"/><polyline class="cls-1" points="73.58 687.55 74.08 687.55 76.58 687.55"/><polyline class="cls-1" points="266.84 687.55 237.59 687.55 165.58 687.55 139.13 687.55"/><polyline class="cls-1" points="1245.58 687.55 1245.57 687.55 1245.53 687.55 1211.22 687.55 1115.19 687.55 1115.12 687.55 1101.98 687.55 1075.39 687.55 1069.58 687.55 1069.22 687.55 1063.13 687.55 1016.58 687.55 957.06 687.55 882.98 687.55 850.58 687.55 850.22 687.55 828.42 687.55"/><polyline class="cls-1" points="1245.58 1233.55 1063.6 1233.55 911.59 1233.55 871.95 1233.55 871.91 1233.55 850.58 1233.55"/><polyline class="cls-1" points="73.58 1233.55 74.08 1233.55 76.58 1233.55 129.58 1233.55 165.58 1233.55 173.85 1233.55"/><line class="cls-1" x1="448.81" y1="1233.55" x2="288.41" y2="1233.55"/><polyline class="cls-1" points="563.39 1233.55 583.71 1233.55 642.08 1233.55 698.74 1233.55 738.46 1233.55 738.54 1233.55 797.58 1233.55"/><path class="cls-1" d="M1138.48,755.68v546.49h-5.98l-.19-220.86-.05-57.85v-.07l-.17-190.85v-.12l-.04-57.45-46.57,67.46V754.78a251.949,251.949,0,0,0,30.77,1.88q7.95,0,15.78-.49,3.06-.2,6.09-.46C1138.24,755.71,1138.36,755.69,1138.48,755.68Z" transform="translate(-68.9 -69.62)"/><path class="cls-1" d="M1138.48,142.17v561.1c-.12.01-.24.03-.36.04-2.04.23-4.08.42-6.14.58q-7.9.645-15.97.64a199.548,199.548,0,0,1-30.53-2.34V142.17Z" transform="translate(-68.9 -69.62)"/><polyline class="cls-1" points="1297.58 189.55 1245.58 265.6 1238.27 276.29 1211.22 315.85 1207.76 320.91 1101.98 475.61 1069.58 522.99 1069.22 523.52 1063 532.62 1016.58 600.5 997.36 628.61"/><polyline class="cls-1" points="538.58 1299.55 539.26 1298.55 583.71 1233.55 642.08 1148.19 797.58 920.78"/><polyline class="cls-1" points="850.22 843.79 850.58 843.27 882.98 795.88 957.06 687.55 966.54 673.68"/><line class="cls-1" x1="1287.58" y1="437.55" x2="1245.58" y2="498.43"/><polyline class="cls-1" points="1123.67 675.16 1115.12 687.55 1101.98 706.6 1069.58 753.56 1069.22 754.09 1063.19 762.8"/><polyline class="cls-1" points="882.98 1024.06 850.58 1071.03 850.22 1071.55"/><polyline class="cls-1" points="797.58 1147.86 738.46 1233.55 694.69 1297.01 693.62 1298.55 693.1 1299.31"/><path class="cls-1" d="M951.88,142.93V617.39a196.854,196.854,0,0,1-32.4-85.89c-.13-1.02-.25-2.03-.36-3.05V142.93Z" transform="translate(-68.9 -69.62)"/><path class="cls-1" d="M951.88,694.95v607.98H919.12V838.38c.12-.36.24-.73.36-1.1a76.234,76.234,0,0,0,0-46.3c-.12-.37-.24-.74-.36-1.1V660.26c.11.16.23.31.36.47A250.934,250.934,0,0,0,951.88,694.95Z" transform="translate(-68.9 -69.62)"/><polyline class="cls-1" points="1245.15 441.48 1211.22 490.66 1121.74 620.37"/><polyline class="cls-1" points="1123.76 675.13 1115.19 687.55 1101.98 706.7 1069.58 753.66 1069.22 754.19 1063.19 762.88"/><path d="M866.48,1296.12v-298.2a24.336,24.336,0,0,1,4.246-13.734l35.69-52.2a6.959,6.959,0,0,1,12.7,3.927v360.026a7.018,7.018,0,0,1-6.986,7.018l-38.6.176A7.018,7.018,0,0,1,866.48,1296.12Z" transform="translate(-68.9 -69.62)"/><polyline class="cls-1" points="1016.58 830.49 882.98 1024.16 850.58 1071.13 850.22 1071.65"/><polyline class="cls-1" points="797.58 1147.96 738.54 1233.55 694.74 1297.04 694.69 1297.01 667.77 1278.44 698.74 1233.55 797.58 1090.27"/><polyline class="cls-1" points="850.22 1013.96 850.58 1013.44 882.98 966.47"/><polyline class="cls-1" points="1063.15 705.35 1063.15 705.31 1069.22 696.5 1069.58 695.98 1075.39 687.55 1076.95 685.3"/><path class="cls-1" d="M1170.88,750.66v551.27h-32.76V755.71c.12,0,.24-.02.36-.03,2.47-.21,4.92-.47,7.37-.76A245.721,245.721,0,0,0,1170.88,750.66Z" transform="translate(-68.9 -69.62)"/><path class="cls-1" d="M1170.88,141.93v554.9a197.059,197.059,0,0,1-32.4,6.44c-.12.01-.24.03-.36.04V141.93Z" transform="translate(-68.9 -69.62)"/><path class="cls-1" d="M1314.48,141.93V510.47l-.43.63a197.061,197.061,0,0,1-33.93,106.31V141.93Z" transform="translate(-68.9 -69.62)"/><path class="cls-1" d="M1314.48,658.83v643.1h-34.36V695.37A249.2,249.2,0,0,0,1314.48,658.83Z" transform="translate(-68.9 -69.62)"/><line class="cls-1" x1="1297.58" y1="611.55" x2="1245.58" y2="687.54"/><polyline class="cls-1" points="1101.98 897.4 1069.58 944.74 1069.22 945.27 1063.36 953.83"/><polyline class="cls-1" points="1016.58 1022.2 882.98 1217.44 872.12 1233.31 871.95 1233.55 839.83 1280.49 827.48 1298.55 827.1 1299.1"/><polyline class="cls-1" points="1211.22 737.75 1245.57 687.55 1245.58 687.55"/><line class="cls-1" x1="1299.08" y1="667.29" x2="1298.58" y2="668.02"/><path d="M1280.12,830.071v28.1a23.03,23.03,0,0,1-4.024,13l-92.4,135.026a7.024,7.024,0,0,1-12.82-3.966v-27.9a23.649,23.649,0,0,1,4.131-13.354L1267.3,826.105A7.024,7.024,0,0,1,1280.12,830.071Z" transform="translate(-68.9 -69.62)"/><path d="M1081.518,905.753,959.108,1083.2a3.965,3.965,0,0,1-7.228-2.251v-37.677a23.068,23.068,0,0,1,4.08-13.1L1085.48,842.43l31.9-46.208a8.058,8.058,0,0,1,14.689,4.572l.022,31.626v.12l.17,190.85v.07l.05,57.85.183,212.989a7.864,7.864,0,0,1-7.864,7.871h-31.761a7.389,7.389,0,0,1-7.388-7.389V906.987A2.173,2.173,0,0,0,1081.518,905.753Z" transform="translate(-68.9 -69.62)"/><polyline class="cls-1" points="1101.98 955.32 1069.58 1002.67 1069.22 1003.2 1063.41 1011.69"/><polyline class="cls-1" points="1016.58 1080.12 911.59 1233.55 867.11 1298.55 866.83 1298.96 866.23 1298.55 839.83 1280.49 839.8 1280.47 871.91 1233.55 872.07 1233.31 882.98 1217.37 1016.58 1022.13"/><polyline class="cls-1" points="1063.36 953.77 1069.22 945.2 1069.58 944.68 1101.98 897.33 1211.22 737.69 1245.53 687.55 1245.58 687.47"/><line class="cls-1" x1="1245.58" y1="745.47" x2="1211.22" y2="795.68"/><line class="cls-1" x1="1299.08" y1="609.29" x2="1298.58" y2="610.02"/><path d="M919.48,790.98c-.12-.37-.24-.74-.36-1.1a75.913,75.913,0,1,0,0,48.5c.12-.36.24-.73.36-1.1a76.234,76.234,0,0,0,0-46.3Zm-53,65.99a46.991,46.991,0,1,1,27.68-42.84A46.841,46.841,0,0,1,866.48,856.97Z" transform="translate(-68.9 -69.62)"/><path class="cls-1" d="M894.16,814.13a46.959,46.959,0,1,1-27.68-42.84A46.976,46.976,0,0,1,894.16,814.13Z" transform="translate(-68.9 -69.62)"/><path class="cls-1" d="M894.16,814.13a46.959,46.959,0,1,1-27.68-42.84A46.976,46.976,0,0,1,894.16,814.13Z" transform="translate(-68.9 -69.62)"/><line class="cls-1" x1="381.6" y1="659.88" x2="381.6" y2="659.84"/><line class="cls-1" x1="381.6" y1="659.36" x2="381.6" y2="658.88"/><line class="cls-1" x1="380.6" y1="713.88" x2="380.6" y2="713.67"/><line class="cls-1" x1="380.6" y1="713.39" x2="380.6" y2="712.88"/><line class="cls-1" x1="797.58" y1="437.9" x2="796.6" y2="438.88"/><line class="cls-1" x1="1299.6" y1="418.88" x2="1298.58" y2="425.34"/><line class="cls-1" x1="1297.07" y1="434.9" x2="1296.6" y2="437.88"/><polyline class="cls-1" points="1063.13 686.55 1063.13 687.55 1063.15 705.31 1063.15 705.35"/><polyline class="cls-1" points="1063.6 1232.55 1063.6 1233.55 1063.6 1233.88"/><polyline class="cls-1" points="1063.08 634.27 1063 532.62 1062.74 239.34 1062.7 188.02 1062.6 74.05 1062.6 72.55 1062.6 71.88"/></svg>