<svg id="合并" xmlns="http://www.w3.org/2000/svg" viewBox="0 0 1226.02 1227.75"><defs><style>.cls-1{fill:none;}</style></defs><path class="cls-1" d="M479.34,143.67H445.7q8.355-.435,16.82-.44T479.34,143.67Z" transform="translate(-142.48 -141.5)"/><path class="cls-1" d="M198.48,427.68v70.68a269.173,269.173,0,0,1,0-70.68Z" transform="translate(-142.48 -141.5)"/><path class="cls-1" d="M589.3,757.17q-5.49,2.385-11.09,4.54-4.785-2.355-9.66-4.54Z" transform="translate(-142.48 -141.5)"/><path class="cls-1" d="M704.54,253.86c-.27-.31-.54-.62-.81-.92.34.38.67.76,1,1.15C704.67,254.01,704.61,253.94,704.54,253.86ZM568.55,757.17q4.875,2.19,9.66,4.54,5.6-2.16,11.09-4.54ZM196.15,463.02a267.568,267.568,0,0,0,2.33,35.34V427.68A267.568,267.568,0,0,0,196.15,463.02ZM462.52,143.23q-8.46,0-16.82.44h33.64Q470.985,143.235,462.52,143.23Z" transform="translate(-142.48 -141.5)"/><path class="cls-1" d="M200.85,833.81a9.672,9.672,0,0,0-2.37,6.36v-3.73C199.27,835.56,200.06,834.68,200.85,833.81Z" transform="translate(-142.48 -141.5)"/><path class="cls-1" d="M198.48,427.68v70.68a269.173,269.173,0,0,1,0-70.68Z" transform="translate(-142.48 -141.5)"/><path d="M757.54,1049.22a320.012,320.012,0,0,1-293.6,318.95h-.01q-13.065,1.08-26.41,1.08t-26.41-1.08h-.01a318.275,318.275,0,0,1-168.35-65,21.136,21.136,0,0,1-8.27-16.77v-44.36a8.014,8.014,0,0,1,13.74-5.6c.43.43.86.87,1.29,1.28.34.35.69.7,1.04,1.04.69.68,1.38,1.36,2.08,2.03q4.155,4.02,8.48,7.84c.84.75,1.69,1.49,2.54,2.22.26.23.51.45.77.66.73.63,1.46,1.25,2.19,1.85.58.5,1.15.98,1.74,1.45.52.44,1.05.87,1.57,1.28.55.46,1.1.9,1.65,1.33.59.48,1.18.95,1.77,1.4.59.48,1.19.94,1.79,1.4q5.01,3.87,10.21,7.5c.65.45,1.29.89,1.94,1.33.5.35.99.69,1.5,1.02.75.51,1.5,1.01,2.26,1.5,1,.67,2,1.33,3.01,1.96.97.64,1.95,1.26,2.93,1.85q.45.3.9.57c.99.61,1.99,1.22,3,1.82q3.93,2.37,7.95,4.58c.85.48,1.71.94,2.57,1.4.52.29,1.05.57,1.58.85q1.095.585,2.19,1.14c1.07.57,2.14,1.11,3.22,1.65,1.01.51,2.03,1.01,3.05,1.5q6.345,3.09,12.88,5.83c1.1.47,2.21.93,3.33,1.37.21.09.41.18.61.25.89.36,1.78.71,2.67,1.06.56.22,1.12.44,1.68.65.9.34,1.8.68,2.71,1.01.35.14.7.27,1.05.38.93.35,1.87.69,2.81,1.01,1.26.45,2.52.88,3.78,1.3,1.45.49,2.89.96,4.35,1.42a267.615,267.615,0,0,0,160.4,0c107.84-34.02,186.03-134.85,186.03-253.93A266.159,266.159,0,0,0,449.5,783.29v-.28a318.359,318.359,0,0,1-113.76-25.84q-7.05-3.03-13.91-6.41A320.29,320.29,0,0,1,145.48,507.1q-1.785-12.99-2.5-26.32-.48-8.7-.48-17.53t.48-17.53q.705-13.305,2.5-26.32a318.166,318.166,0,0,1,53-137.02A320.4,320.4,0,0,1,445.7,143.67h33.64c1.65.09,3.3.18,4.94.3,1.27.08,2.53.17,3.79.27q1.92.15,3.84.33c.97.09,1.93.18,2.89.28,1.02.09,2.03.2,3.04.32.98.1,1.95.21,2.93.33,1.19.14,2.39.29,3.58.45,1.37.17,2.74.36,4.11.56q1.725.24,3.45.51c.29.05.59.09.88.14q1.635.255,3.27.54c.35.05.7.11,1.05.17,1.01.17,2.01.35,3.01.54.26.04.51.08.76.13,1.29.24,2.57.49,3.86.74,1.35.26,2.68.53,4.02.82s2.68.57,4.01.87c1.24.28,2.47.56,3.7.85.29.07.57.13.86.21.99.23,1.98.47,2.96.72.25.06.49.12.74.19,1.22.3,2.44.61,3.65.94,1.13.29,2.26.6,3.39.92.77.2,1.54.42,2.31.65q1.665.465,3.33.96c.77.23,1.54.46,2.31.7.41.12.82.24,1.23.38,1.01.31,2.02.62,3.02.95,1.29.41,2.57.83,3.85,1.26s2.55.85,3.82,1.3q11.565,4.035,22.73,8.92c2.37,1.03,4.72,2.1,7.05,3.19.52.24,1.05.48,1.57.74.91.42,1.82.86,2.72,1.3,1.25.6,2.49,1.22,3.73,1.84,2.18,1.09,4.35,2.2,6.5,3.35.63.33,1.26.67,1.88,1.01.88.47,1.76.95,2.63,1.43,1.05.58,2.1,1.16,3.14,1.75q4.08,2.31,8.09,4.74c1.02.61,2.04,1.24,3.05,1.87.88.54,1.75,1.09,2.62,1.65.65.4,1.29.81,1.93,1.23,1.03.65,2.05,1.32,3.07,2,.65.43,1.3.86,1.95,1.3q.645.42,1.29.87c.67.45,1.34.91,2.01,1.37.89.61,1.78,1.23,2.66,1.86.75.52,1.5,1.05,2.24,1.59q3.855,2.76,7.63,5.65c.76.56,1.51,1.14,2.25,1.72q9.87,7.665,19.11,16.08c.77.69,1.53,1.39,2.29,2.1,2.06,1.91,4.1,3.84,6.11,5.82.93.9,1.85,1.82,2.77,2.74.77.76,1.54,1.54,2.3,2.32.67.68,1.34,1.37,2,2.07.61.63,1.22,1.26,1.81,1.9.82.86,1.63,1.73,2.44,2.6.84.91,1.68,1.82,2.5,2.74,1.26,1.39,2.5,2.78,3.72,4.19.34.38.67.76,1,1.15a26.2,26.2,0,0,1,6.25,16.93v69.49c0,5.99-8.04,7.98-10.79,2.71a.558.558,0,0,0-.05-.08q-1.02-2.04-2.09-4.05c-.67-1.28-1.35-2.54-2.04-3.8-.1-.18-.2-.37-.3-.55-.18-.34-.37-.67-.56-1.01l-.75-1.35a1.983,1.983,0,0,1-.11-.2c-.21-.35-.41-.71-.61-1.06-.32-.57-.65-1.13-.98-1.7-.28-.48-.55-.95-.84-1.42-.09-.15-.18-.31-.27-.46l-.39-.66q-1.11-1.875-2.26-3.73c-.38-.61-.76-1.23-1.15-1.84s-.78-1.23-1.17-1.84c-.82-1.27-1.64-2.53-2.48-3.79s-1.68-2.51-2.54-3.75c-.42-.62-.86-1.24-1.3-1.86s-.87-1.23-1.31-1.84q-1.305-1.845-2.66-3.66c-.83-1.12-1.68-2.24-2.53-3.35-.13-.17-.26-.34-.39-.52-.85-1.1-1.71-2.2-2.59-3.3-.47-.59-.94-1.18-1.41-1.76s-.95-1.17-1.43-1.75c-.96-1.16-1.93-2.32-2.9-3.46s-1.96-2.29-2.96-3.42q-1.455-1.665-2.96-3.3a.17.17,0,0,0-.06-.06q-1.515-1.665-3.07-3.31c-1.03-1.09-2.07-2.18-3.12-3.25-.52-.53-1.04-1.07-1.56-1.59l-1.56-1.56-.02-.02-.01-.01a.462.462,0,0,1-.07-.07l-1.59-1.56c-.54-.52-1.07-1.04-1.61-1.55-.96-.92-1.94-1.84-2.92-2.76-.12-.11-.24-.23-.36-.33q-1.635-1.515-3.28-2.99a.265.265,0,0,0-.06-.05q-3.36-3.015-6.83-5.91c-.82-.69-1.65-1.37-2.48-2.05-.23-.19-.47-.38-.7-.57q-1.965-1.59-3.94-3.13a.3.3,0,0,0-.07-.05c-1.01-.79-2.02-1.57-3.04-2.34-.13-.1-.26-.2-.39-.29-1.18-.89-2.38-1.77-3.58-2.65a.209.209,0,0,0-.06-.04c-1.22-.89-2.44-1.76-3.68-2.63-.09-.07-.19-.13-.28-.2q-1.71-1.2-3.45-2.37c-.63-.43-1.25-.85-1.88-1.26s-1.26-.83-1.89-1.25-1.27-.82-1.91-1.23-1.27-.81-1.91-1.21-1.28-.8-1.93-1.2-1.29-.79-1.93-1.18l-1.95-1.17c-.99-.58-1.98-1.16-2.97-1.73s-1.96-1.12-2.94-1.67l-1.83-1.02c-.61-.33-1.23-.67-1.85-1-.77-.42-1.55-.83-2.32-1.23-.67-.36-1.34-.71-2.02-1.05-.89-.46-1.78-.92-2.67-1.36-.09-.05-.18-.09-.27-.14-.11-.06-.23-.11-.34-.17-.98-.48-1.96-.96-2.95-1.44-.65-.31-1.3-.63-1.95-.93-1.01-.48-2.03-.95-3.04-1.41-.01,0-.02-.01-.03-.01-.8-.37-1.6-.73-2.41-1.09-.69-.31-1.38-.61-2.07-.91-.96-.42-1.93-.83-2.9-1.24-.57-.24-1.14-.48-1.71-.71q-4.44-1.83-8.96-3.5c-.72-.27-1.45-.54-2.17-.79-1.37-.5-2.74-.98-4.12-1.45q-4.485-1.53-9.03-2.9-1.11-.345-2.22-.66c-1.07-.32-2.14-.62-3.22-.92-.01,0-.03-.01-.04-.01q-1.2-.345-2.4-.66c-.49-.13-.97-.26-1.45-.38-.62-.17-1.23-.32-1.85-.48-.93-.24-1.88-.48-2.82-.7-.07-.02-.13-.03-.2-.05s-.12-.03-.18-.04c-1.03-.25-2.07-.5-3.1-.73-1.1-.25-2.2-.5-3.31-.73-.65-.15-1.3-.29-1.96-.42-.96-.2-1.93-.4-2.9-.59-.7-.13-1.41-.27-2.12-.4-1.38-.26-2.76-.51-4.15-.74-.62-.11-1.24-.22-1.87-.32h-.03a.06.06,0,0,1-.04-.01c-1.08-.17-2.14-.34-3.22-.5-.57-.09-1.14-.17-1.71-.25-.65-.1-1.29-.19-1.94-.27-.09-.01-.19-.03-.28-.04-.49-.07-.97-.13-1.46-.19l-.21-.03c-.6-.08-1.21-.16-1.81-.23h-.03c-.44-.06-.88-.11-1.32-.16-1.64-.19-3.29-.37-4.95-.53-1.51-.15-3.03-.29-4.55-.41-.22-.02-.45-.04-.67-.05-.86-.07-1.72-.13-2.58-.19-.54-.04-1.09-.08-1.64-.11-.76-.05-1.53-.09-2.29-.13-1.31-.07-2.62-.13-3.94-.18-.88-.04-1.75-.07-2.63-.09-.68-.02-1.37-.04-2.05-.05-.3-.01-.6-.02-.9-.02-.22-.01-.43-.01-.65-.01a1.927,1.927,0,0,0-.24-.01h-.14c-1.32-.02-2.64-.03-3.97-.03A266.221,266.221,0,0,0,450.5,728.98v.48a318.326,318.326,0,0,1,118.05,27.71q4.875,2.19,9.66,4.54a320,320,0,0,1,179.33,287.51Z" transform="translate(-142.48 -141.5)"/><path d="M704.73,254.09c-.33-.39-.66-.77-1-1.15.27.3.54.61.81.92C704.61,253.94,704.67,254.01,704.73,254.09Z" transform="translate(-142.48 -141.5)"/><path class="cls-1" d="M919.48,353.1V531.5c-.11-.87-.22-1.74-.31-2.61a1.492,1.492,0,0,1-.02-.21c-.01-.08-.02-.15-.03-.23V353.57C919.24,353.41,919.36,353.25,919.48,353.1Z" transform="translate(-142.48 -141.5)"/><rect class="cls-1" x="1172" y="2.17" width="53" height="0.5"/><path class="cls-1" d="M198.48,836.44v3.73a9.672,9.672,0,0,1,2.37-6.36C200.06,834.68,199.27,835.56,198.48,836.44Zm-52.26,345.47c.04.1.08.2.13.3.13.29.27.58.41.87Zm52.26-345.47v3.73a9.672,9.672,0,0,1,2.37-6.36C200.06,834.68,199.27,835.56,198.48,836.44Zm883.04,69.31a2.049,2.049,0,0,1,.33-.38l3.63-5.26v-.1Zm0,0a2.049,2.049,0,0,1,.33-.38l3.63-5.26v-.1Zm0,0a2.049,2.049,0,0,1,.33-.38l3.63-5.26v-.1Zm0,0a2.049,2.049,0,0,1,.33-.38l3.63-5.26v-.1Zm0,0a2.049,2.049,0,0,1,.33-.38l3.63-5.26v-.1Zm0,0a2.049,2.049,0,0,1,.33-.38l3.63-5.26v-.1Zm0,0a2.049,2.049,0,0,1,.33-.38l3.63-5.26v-.1Zm0,0a2.049,2.049,0,0,1,.33-.38l3.63-5.26v-.1Zm0,0a2.049,2.049,0,0,1,.33-.38l3.63-5.26v-.1Zm0,0a2.049,2.049,0,0,1,.33-.38l3.63-5.26v-.1ZM196.15,463.02a267.568,267.568,0,0,0,2.33,35.34V427.68A267.568,267.568,0,0,0,196.15,463.02Zm372.4,294.15q4.875,2.19,9.66,4.54,5.6-2.16,11.09-4.54ZM704.54,253.86c-.27-.31-.54-.62-.81-.92.34.38.67.76,1,1.15C704.67,254.01,704.61,253.94,704.54,253.86Zm3.77,503.31h2.67v-2.26C710.09,755.68,709.2,756.43,708.31,757.17Zm373.21,148.58a2.049,2.049,0,0,1,.33-.38l3.63-5.26v-.1Zm56.96-82.57-.36.53-6.03,8.71v.08l6.03-8.69.36-.53,32.4-46.96v-.1Zm153.43-138.75c-.39.39-.78.77-1.17,1.15.3-.28.6-.58.9-.87.28-.28.57-.56.85-.85C1292.3,684.06,1292.1,684.25,1291.91,684.43Zm20.64-23.12c-.64.83-1.3,1.65-1.96,2.46s-1.32,1.63-1.99,2.43c-.2.25-.4.49-.6.73a3.665,3.665,0,0,1,6.48,2.35V658.83C1313.84,659.66,1313.2,660.49,1312.55,661.31ZM1138.48,1014.3l-.36.52-5.86,8.57v.06l5.86-8.56.36-.53,32.4-47.34v-.07Zm-56.96-108.55a2.049,2.049,0,0,1,.33-.38,2.175,2.175,0,0,1,3.63,1.62v-6.98ZM940.97,1302.93l-.16.24h.04l.17-.24Zm-21.85-219.35v57.69l.36-.52v-57.69Zm395.31-326.41-34.31,50.14v.06l34.35-50.2h.01v-.08Zm-175.95-1.49c-.12.01-.24.03-.36.03q-3.03.27-6.09.46-7.83.48-15.78.49a251.949,251.949,0,0,1-30.77-1.88v2.39h58.81l1.56-2.25C1143.4,755.21,1140.95,755.47,1138.48,755.68Zm-56.96,150.07a2.049,2.049,0,0,1,.33-.38l3.63-5.26v-.1Zm0,0a2.049,2.049,0,0,1,.33-.38l3.63-5.26v-.1Zm0,0a2.049,2.049,0,0,1,.33-.38l3.63-5.26v-.1Zm0,0a2.049,2.049,0,0,1,.33-.38l3.63-5.26v-.1Zm0,0a2.049,2.049,0,0,1,.33-.38l3.63-5.26v-.1Zm0,0a2.049,2.049,0,0,1,.33-.38l3.63-5.26v-.1Zm0,0a2.049,2.049,0,0,1,.33-.38l3.63-5.26v-.1Zm0,0a2.049,2.049,0,0,1,.33-.38l3.63-5.26v-.1Zm0,0a2.049,2.049,0,0,1,.33-.38l3.63-5.26v-.1Zm0,0a2.049,2.049,0,0,1,.33-.38l3.63-5.26v-.1Zm0,0a2.049,2.049,0,0,1,.33-.38l3.63-5.26v-.1Z" transform="translate(-142.48 -141.5)"/><line class="cls-1" x1="92" y1="1227.67" x2="92" y2="1226.67"/><line class="cls-1" x1="92" y1="2.17" x2="92" y2="1.67"/><line class="cls-1" x1="568.5" y1="1226.17" x2="568.5" y2="1161.67"/><line class="cls-1" x1="568.5" y1="2.17" x2="568.5" y2="1.17"/><path class="cls-1" d="M198.48,427.68v70.68a269.173,269.173,0,0,1,0-70.68Z" transform="translate(-142.48 -141.5)"/><path d="M240.58,796.96c-.22.18-.45.35-.67.53q-1,.78-2.01,1.59c-1.15.91-2.29,1.84-3.42,2.77-1.33,1.09-2.64,2.19-3.95,3.3-.28.24-.56.47-.84.71-1.23,1.05-2.45,2.12-3.67,3.19-.18.15-.36.31-.53.47q-1.935,1.695-3.82,3.44c-.44.4-.88.8-1.32,1.21-.98.9-1.95,1.8-2.91,2.72-.21.19-.42.39-.62.59q-1.935,1.83-3.82,3.7-1.95,1.905-3.86,3.86c-.83.84-1.65,1.69-2.46,2.54-1.15,1.19-2.28,2.38-3.4,3.59-.36.38-.72.77-1.06,1.15-.43.45-.84.9-1.25,1.35-.04.05-.08.09-.12.14a9.672,9.672,0,0,0-2.37,6.36v394.66c0,9.3-11.87,13.28-17.44,5.82-.84-1.13-1.68-2.27-2.51-3.41q-2.5-3.435-4.9-6.93c-.8-1.16-1.59-2.33-2.38-3.51-.65-.97-1.29-1.94-1.93-2.92q-1.4-2.13-2.76-4.31-.825-1.3-1.62-2.61-.63-1.005-1.23-2.01c-.56-.91-1.11-1.82-1.64-2.73-.37-.62-.74-1.24-1.1-1.86-.53-.9-1.06-1.81-1.57-2.72-.69-1.21-1.37-2.42-2.04-3.64-.43-.77-.85-1.53-1.27-2.3q-4.965-9.135-9.33-18.62c-.14-.29-.28-.58-.41-.87-.05-.1-.09-.2-.13-.3a.67.67,0,0,1-.07-.18,9.708,9.708,0,0,1-.67-3.57V718.43a9.683,9.683,0,0,1,17.04-6.3c.09.11.19.22.29.33,1.3,1.52,2.61,3.02,3.94,4.52q2.13,2.415,4.31,4.78c1.2,1.31,2.41,2.62,3.63,3.91q.915.975,1.86,1.95c.81.87,1.64,1.73,2.5,2.59.32.36.67.71,1.03,1.07q2.16,2.205,4.36,4.38,2.01,2,4.05,3.95c.44.43.88.85,1.33,1.28q1.755,1.665,3.54,3.32c.19.18.37.36.56.52q2.265,2.1,4.56,4.16,4.71,4.23,9.55,8.28,12.765,10.74,26.45,20.34,1.95,1.38,3.93,2.73c.16.11.33.23.49.34.37.25.73.5,1.1.75A9.677,9.677,0,0,1,240.58,796.96Z" transform="translate(-142.48 -141.5)"/><path class="cls-1" d="M146.76,1183.08c-.14-.29-.28-.58-.41-.87-.05-.1-.09-.2-.13-.3Z" transform="translate(-142.48 -141.5)"/><path class="cls-1" d="M919.48,481.38V531.5c-.11-.87-.22-1.74-.31-2.61a1.492,1.492,0,0,1-.02-.21c-.01-.08-.02-.15-.03-.23V484.43C919.23,483.41,919.35,482.39,919.48,481.38Z" transform="translate(-142.48 -141.5)"/><path class="cls-1" d="M919.48,353.1V531.5c-.11-.87-.22-1.74-.31-2.61a1.492,1.492,0,0,1-.02-.21c-.01-.08-.02-.15-.03-.23V353.57C919.24,353.41,919.36,353.25,919.48,353.1Z" transform="translate(-142.48 -141.5)"/><path d="M1367.48,152.04V1295.26a7.908,7.908,0,0,1-7.91,7.91h-37.22a7.865,7.865,0,0,1-7.87-7.87V669.28a3.665,3.665,0,0,0-6.48-2.35c-.22.27-.44.53-.67.79-.55.66-1.1,1.31-1.66,1.95-.37.44-.75.88-1.13,1.32-.89,1.02-1.79,2.03-2.7,3.04q-3.6,4.005-7.38,7.84c-.65.67-1.31,1.33-1.97,1.99-.19.2-.39.39-.58.57-.09.1-.18.19-.27.28-.3.29-.6.59-.9.87-.62.61-1.25,1.22-1.88,1.82-.8.77-1.61,1.54-2.43,2.29-.31.29-.62.58-.93.86-.79.73-1.58,1.46-2.38,2.17-.99.89-1.99,1.77-3,2.65a249.046,249.046,0,0,1-87.46,49.38l-.09.03q-10.635,3.42-21.69,5.88a245.721,245.721,0,0,1-25.03,4.26c-2.45.29-4.9.55-7.37.76-.12.01-.24.03-.36.03q-3.03.27-6.09.46-7.83.48-15.78.49a251.949,251.949,0,0,1-30.77-1.88,248.444,248.444,0,0,1-133.6-59.83,250.934,250.934,0,0,1-32.4-34.22c-.13-.16-.25-.31-.36-.47A248.576,248.576,0,0,1,866.5,507.5l-.02.02V151.54a7.865,7.865,0,0,1,7.87-7.87h36.9a7.865,7.865,0,0,1,7.87,7.87V528.01c0,.22.02.45.03.67a1.492,1.492,0,0,0,.02.21c.09.87.2,1.74.31,2.61a198.206,198.206,0,0,0,146.78,166.73q9.435,2.445,19.22,3.96a199.548,199.548,0,0,0,30.53,2.34q8.07,0,15.97-.64c2.06-.16,4.1-.35,6.14-.58.12-.01.24-.03.36-.04A198.079,198.079,0,0,0,1314.05,511.1l.43-.63V152.04a7.865,7.865,0,0,1,7.87-7.87h37.26A7.865,7.865,0,0,1,1367.48,152.04Z" transform="translate(-142.48 -141.5)"/><polygon class="cls-1" points="777 941.56 777 999.25 776.64 999.77 776.64 942.08 777 941.56"/><rect class="cls-1" x="776.64" y="1.67" width="0.36" height="0.5"/><path class="cls-1" d="M919.48,353.1V531.5c-.11-.87-.22-1.74-.31-2.61a1.492,1.492,0,0,1-.02-.21c-.01-.08-.02-.15-.03-.23V353.57C919.24,353.41,919.36,353.25,919.48,353.1Z" transform="translate(-142.48 -141.5)"/><line class="cls-1" x1="1223" y1="615.67" x2="1211.64" y2="615.67"/><line class="cls-1" x1="0.5" y1="615.67" y2="615.67"/><line class="cls-1" x1="1171.99" y1="615.67" x2="1171.95" y2="615.67"/><line class="cls-1" x1="0.5" y1="1161.67" y2="1161.67"/><polygon class="cls-1" points="996 872.8 996 872.86 995.64 873.39 989.78 881.95 989.78 881.89 995.64 873.32 996 872.8"/><polygon class="cls-1" points="996 681.68 996 681.78 995.64 682.31 989.61 691 989.61 690.92 995.64 682.21 996 681.68"/><path class="cls-1" d="M1138.48,755.68v1.49h-53v-2.39a251.949,251.949,0,0,0,30.77,1.88q7.95,0,15.78-.49,3.06-.2,6.09-.46C1138.24,755.71,1138.36,755.69,1138.48,755.68Z" transform="translate(-142.48 -141.5)"/><rect class="cls-1" x="989.02" y="0.67" width="6.98" height="1.5"/><line class="cls-1" x1="1224" y1="117.67" x2="1172" y2="193.72"/><line class="cls-1" x1="465.68" y1="1226.67" x2="465" y2="1227.67"/><line class="cls-1" x1="1214" y1="365.67" x2="1172" y2="426.55"/><line class="cls-1" x1="777" y1="999.15" x2="776.64" y2="999.67"/><line class="cls-1" x1="620.04" y1="1226.67" x2="619.52" y2="1227.43"/><rect class="cls-1" x="776.64" y="1.67" width="0.36" height="0.5"/><path class="cls-1" d="M919.48,353.1V531.5c-.11-.87-.22-1.74-.31-2.61a1.492,1.492,0,0,1-.02-.21c-.01-.08-.02-.15-.03-.23V353.57C919.24,353.41,919.36,353.25,919.48,353.1Z" transform="translate(-142.48 -141.5)"/><polygon class="cls-1" points="777 941.56 777 999.25 776.64 999.77 776.64 942.08 777 941.56"/><path d="M919.12,935.92v360.02a7.016,7.016,0,0,1-6.99,7.02l-38.6.18a7.016,7.016,0,0,1-7.05-7.02V997.92a24.308,24.308,0,0,1,4.25-13.73l35.69-52.2A6.956,6.956,0,0,1,919.12,935.92Z" transform="translate(-142.48 -141.5)"/><line class="cls-1" x1="943" y1="758.61" x2="939.37" y2="763.87"/><polygon class="cls-1" points="1028.4 825.45 1028.4 825.52 996 872.86 995.64 873.39 995.64 873.32 996 872.8 1028.4 825.45"/><polygon class="cls-1" points="1028.4 634.72 1028.4 634.82 996 681.78 995.64 682.31 995.64 682.21 996 681.68 1028.4 634.72"/><path class="cls-1" d="M1145.85,754.92l-1.56,2.25h-6.17v-1.46c.12,0,.24-.02.36-.03C1140.95,755.47,1143.4,755.21,1145.85,754.92Z" transform="translate(-142.48 -141.5)"/><rect class="cls-1" x="995.64" y="0.67" width="0.36" height="1.5"/><polygon class="cls-1" points="1172 615.59 1172 615.67 1171.99 615.67 1137.64 665.87 1137.64 665.81 1171.95 615.67 1172 615.59"/><path class="cls-1" d="M1314.48,658.83v10.45a3.665,3.665,0,0,0-6.48-2.35c.2-.24.4-.48.6-.73.67-.8,1.34-1.62,1.99-2.43s1.32-1.63,1.96-2.46S1313.84,659.66,1314.48,658.83Z" transform="translate(-142.48 -141.5)"/><line class="cls-1" x1="1224" y1="539.67" x2="1172" y2="615.66"/><line class="cls-1" x1="753.9" y1="1226.67" x2="753.52" y2="1227.22"/><line class="cls-1" x1="1225.5" y1="595.41" x2="1225" y2="596.14"/><path d="M1280.12,830.07v28.1a23.036,23.036,0,0,1-3.54,12.28c-.16.25-.32.49-.48.73l-92.4,135.03c-.04.06-.08.11-.12.17a7.027,7.027,0,0,1-12.7-4.14v-27.9a23.7,23.7,0,0,1,4.07-13.27l.06-.09,92.29-134.87A7.023,7.023,0,0,1,1280.12,830.07Z" transform="translate(-142.48 -141.5)"/><path d="M1132.49,1294.3v.02a7.866,7.866,0,0,1-7.86,7.85h-31.76a7.392,7.392,0,0,1-7.39-7.39V906.99a2.175,2.175,0,0,0-3.63-1.62,2.049,2.049,0,0,0-.33.38L959.11,1083.2c-.01.01-.02.03-.03.04a3.965,3.965,0,0,1-7.2-2.29v-37.68a23.035,23.035,0,0,1,4.08-13.09l129.52-187.75,31.9-46.21c.03-.04.06-.09.09-.13a8.061,8.061,0,0,1,14.6,4.6v.1l.02,31.63v.12l.17,190.85v.07l.05,57.85Z" transform="translate(-142.48 -141.5)"/><polyline class="cls-1" points="792.65 1226.67 793.25 1227.08 793.53 1226.67"/><line class="cls-1" x1="1225.5" y1="537.41" x2="1225" y2="538.14"/><path d="M919.48,790.98c-.12-.37-.24-.74-.36-1.1a75.913,75.913,0,1,0,0,48.5c.12-.36.24-.73.36-1.1a76.234,76.234,0,0,0,0-46.3Zm-53,65.99a46.991,46.991,0,1,1,27.68-42.84A46.841,46.841,0,0,1,866.48,856.97Z" transform="translate(-142.48 -141.5)"/><path class="cls-1" d="M894.16,814.13a46.959,46.959,0,1,1-27.68-42.84A46.976,46.976,0,0,1,894.16,814.13Z" transform="translate(-142.48 -141.5)"/><line class="cls-1" x1="308.02" y1="588" x2="308.02" y2="587.96"/><line class="cls-1" x1="308.02" y1="587.48" x2="308.02" y2="587"/><line class="cls-1" x1="307.02" y1="642" x2="307.02" y2="641.79"/><line class="cls-1" x1="307.02" y1="641.51" x2="307.02" y2="641"/><line class="cls-1" x1="724" y1="366.02" x2="723.02" y2="367"/><line class="cls-1" x1="1226.02" y1="347" x2="1225" y2="353.46"/><line class="cls-1" x1="1223.49" y1="363.02" x2="1223.02" y2="366"/><line class="cls-1" x1="989.55" y1="615.67" x2="989.55" y2="614.67"/><line class="cls-1" x1="990.02" y1="1162" x2="990.02" y2="1161.67"/><line class="cls-1" x1="989.02" y1="0.67" x2="989.02"/></svg>