<svg xmlns="http://www.w3.org/2000/svg" viewBox="0 0 1301.821 1302.627"><defs><style>.cls-1,.cls-2{fill:none;}.cls-1{stroke:#999;stroke-miterlimit:10;stroke-width:3px;}</style></defs><g id="图层_1" data-name="图层 1"><circle class="cls-1" cx="395.128" cy="395.128" r="320.023"/><circle class="cls-1" cx="390.777" cy="390.777" r="389.277"/><circle class="cls-1" cx="370.125" cy="981.104" r="320.023"/><circle class="cls-1" cx="370.116" cy="981.122" r="266.225"/><circle class="cls-1" cx="394.984" cy="394.903" r="266.225"/><rect class="cls-1" x="75.583" y="75.554" width="1224.5" height="1224.5"/><line class="cls-1" x1="167.083" y1="75.054" x2="167.083" y2="1301.054"/><line class="cls-1" x1="643.583" y1="74.554" x2="643.583" y2="1299.554"/><rect class="cls-1" x="78.083" y="77.054" width="53" height="1224"/><rect class="cls-1" x="1247.083" y="76.054" width="53" height="1159"/><circle class="cls-1" cx="1048.613" cy="438.319" r="198.094"/><circle class="cls-1" cx="1048.851" cy="438.799" r="249.745"/><rect class="cls-1" x="799.083" y="75.054" width="53" height="1160"/><line class="cls-1" x1="75.083" y1="689.054" x2="1298.083" y2="689.054"/><line class="cls-1" x1="75.083" y1="1235.054" x2="1300.083" y2="1235.054"/><rect class="cls-1" x="1018.083" y="74.054" width="53" height="1160"/><line class="cls-1" x1="540.083" y1="1301.054" x2="1299.083" y2="191.054"/><line class="cls-1" x1="694.605" y1="1300.815" x2="1289.083" y2="439.054"/><rect class="cls-1" x="851.728" y="74.815" width="32.754" height="1160"/><polyline class="cls-1" points="1300.083 365.518 669.279 1279.937 696.24 1298.536 1300.083 423.2"/><rect class="cls-1" x="1070.728" y="73.815" width="32.754" height="1160"/><rect class="cls-1" x="1212.728" y="73.815" width="34.355" height="1160"/><line class="cls-1" x1="828.605" y1="1300.597" x2="1299.083" y2="613.054"/><polyline class="cls-1" points="1300.583 610.795 841.308 1281.966 868.339 1300.463 1300.583 668.794"/><circle class="cls-1" cx="779.779" cy="746.01" r="75.902"/><circle class="cls-1" cx="779.779" cy="746.01" r="46.983"/></g><g id="合并"><path class="cls-2" d="M479.34,143.67H445.7q8.355-.435,16.82-.44T479.34,143.67Z" transform="translate(-67.417 -68.446)"/><path class="cls-2" d="M782.55,463.25A320.271,320.271,0,0,1,589.3,757.17q-5.49,2.385-11.09,4.54-4.785-2.355-9.66-4.54A318.326,318.326,0,0,0,450.5,729.46v-.48A266.221,266.221,0,0,1,462.38,196.8c113.4,0,210.23,70.9,248.6,170.78V261.54A318.654,318.654,0,0,1,782.55,463.25Z" transform="translate(-67.417 -68.446)"/><path class="cls-2" d="M710.98,162.89Q699.19,152.8,686.6,143.67A389.435,389.435,0,0,0,145.48,227c-.84,1.13-1.67,2.26-2.5,3.4a389.429,389.429,0,0,0,0,456.99c.82,1.14,1.66,2.27,2.5,3.4a391.54,391.54,0,0,0,53,58.1q4.71,4.23,9.55,8.28,12.765,10.74,26.45,20.34,8.34,5.88,16.99,11.3a390.132,390.132,0,0,0,332.99,38.41A264.786,264.786,0,0,0,449.5,783.29v-.28a318.359,318.359,0,0,1-113.76-25.84q-7.05-3.03-13.91-6.41A320.29,320.29,0,0,1,145.48,507.1q-1.785-12.99-2.5-26.32-.48-8.7-.48-17.53t.48-17.53q.705-13.305,2.5-26.32a318.166,318.166,0,0,1,53-137.02A320.4,320.4,0,0,1,445.7,143.67h33.64A319.349,319.349,0,0,1,710.98,261.54V367.58C672.61,267.7,575.78,196.8,462.38,196.8A266.221,266.221,0,0,0,450.5,728.98v.48a318.326,318.326,0,0,1,118.05,27.71q4.875,2.19,9.66,4.54a319.635,319.635,0,0,1,63.11,40.77,389.335,389.335,0,0,0,66.99-45.31c.89-.74,1.78-1.49,2.67-2.26,83.53-71.39,136.47-177.52,136.47-296.01S794.51,234.28,710.98,162.89Z" transform="translate(-67.417 -68.446)"/><path class="cls-2" d="M463.93,1368.17q-13.065,1.08-26.41,1.08t-26.41-1.08Z" transform="translate(-67.417 -68.446)"/><path class="cls-2" d="M145.48,918.17v262.11c-.85-1.9-1.69-3.8-2.5-5.72a321.023,321.023,0,0,1,0-250.68C143.79,921.97,144.63,920.06,145.48,918.17Z" transform="translate(-67.417 -68.446)"/><path class="cls-2" d="M703.74,1049.24c0,119.08-78.19,219.91-186.03,253.93a266.09,266.09,0,0,1-283.23-81.72v75.15a321.472,321.472,0,0,1-36-34.59V836.44a321.472,321.472,0,0,1,36-34.59q8.265-6.81,16.99-13.04a319.33,319.33,0,0,1,55.02-31.64q7.56-3.4,15.34-6.41,6.855,3.375,13.91,6.41A318.359,318.359,0,0,0,449.5,783.01v.28a266.159,266.159,0,0,1,254.24,265.95Z" transform="translate(-67.417 -68.446)"/><path class="cls-2" d="M703.74,1049.24c0,119.08-78.19,219.91-186.03,253.93a266.578,266.578,0,0,1-319.23-136.59V931.9A266.143,266.143,0,0,1,437.51,783.02q6.03,0,11.99.27a266.159,266.159,0,0,1,254.24,265.95Z" transform="translate(-67.417 -68.446)"/><path class="cls-2" d="M728.6,463.02a265.566,265.566,0,0,1-17.62,95.44c-38.37,99.89-135.2,170.79-248.6,170.79q-5.97,0-11.88-.27A266.221,266.221,0,0,1,462.38,196.8c113.4,0,210.23,70.9,248.6,170.78A265.607,265.607,0,0,1,728.6,463.02Z" transform="translate(-67.417 -68.446)"/><path d="M757.54,1049.22a320.009,320.009,0,0,1-293.6,318.949H411.1a318.3,318.3,0,0,1-168.351-65h0a21.135,21.135,0,0,1-8.27-16.769v-44.362a8.015,8.015,0,0,1,13.744-5.6A266.584,266.584,0,0,0,517.71,1303.17c107.84-34.02,186.03-134.85,186.03-253.93A266.159,266.159,0,0,0,449.5,783.29v-.28a318.359,318.359,0,0,1-113.76-25.84q-7.05-3.03-13.91-6.41A320.29,320.29,0,0,1,145.48,507.1q-1.785-12.99-2.5-26.32-.48-8.7-.48-17.53t.48-17.53q.705-13.305,2.5-26.32a318.166,318.166,0,0,1,53-137.02A320.4,320.4,0,0,1,445.7,143.67h33.64a319.217,319.217,0,0,1,225.2,110.188,26.229,26.229,0,0,1,6.445,17.159v69.5c0,6.017-8.123,8-10.836,2.627C656.288,256.331,566.291,196.8,462.38,196.8A266.221,266.221,0,0,0,450.5,728.98v.48a318.326,318.326,0,0,1,118.05,27.71q4.875,2.19,9.66,4.54a320,320,0,0,1,179.33,287.51Z" transform="translate(-67.417 -68.446)"/><path class="cls-2" d="M1367.48,143.67v.5h-53v366.3l-.43.63a197.858,197.858,0,0,1-175.57,192.17c-.12.01-.24.03-.36.04-2.04.23-4.08.42-6.14.58q-7.9.645-15.97.64a199.548,199.548,0,0,1-30.53-2.34q-9.78-1.515-19.22-3.96A198.206,198.206,0,0,1,919.48,531.5c-.13-1.02-.25-2.03-.36-3.05V143.67Z" transform="translate(-67.417 -68.446)"/><path class="cls-2" d="M866.48,771.29a46.991,46.991,0,1,0,27.68,42.84A46.841,46.841,0,0,0,866.48,771.29Zm0,0a46.991,46.991,0,1,0,27.68,42.84A46.841,46.841,0,0,0,866.48,771.29Zm0,0a46.991,46.991,0,1,0,27.68,42.84A46.841,46.841,0,0,0,866.48,771.29Zm0,0a46.991,46.991,0,1,0,27.68,42.84A46.841,46.841,0,0,0,866.48,771.29Zm0,0a46.991,46.991,0,1,0,27.68,42.84A46.841,46.841,0,0,0,866.48,771.29Zm0,0a46.991,46.991,0,1,0,27.68,42.84A46.841,46.841,0,0,0,866.48,771.29Zm0,0a46.991,46.991,0,1,0,27.68,42.84A46.841,46.841,0,0,0,866.48,771.29Zm0,0a46.991,46.991,0,1,0,27.68,42.84A46.841,46.841,0,0,0,866.48,771.29Zm0,0a46.991,46.991,0,1,0,27.68,42.84A46.841,46.841,0,0,0,866.48,771.29Zm0,0a46.991,46.991,0,1,0,27.68,42.84A46.841,46.841,0,0,0,866.48,771.29Zm448,531.88V658.83a250.477,250.477,0,0,1-121.82,85.92l-.09.03q-10.635,3.42-21.69,5.88a245.721,245.721,0,0,1-25.03,4.26c-2.45.29-4.9.55-7.37.76-.12.01-.24.03-.36.03q-3.03.27-6.09.46-7.83.48-15.78.49a251.949,251.949,0,0,1-30.77-1.88,248.444,248.444,0,0,1-133.6-59.83,250.934,250.934,0,0,1-32.4-34.22c-.13-.16-.25-.31-.36-.47A248.576,248.576,0,0,1,866.5,507.5l-.02.02V143.67H479.34A319.349,319.349,0,0,1,710.98,261.54V367.58C672.61,267.7,575.78,196.8,462.38,196.8A266.221,266.221,0,0,0,450.5,728.98v.48a318.326,318.326,0,0,1,118.05,27.71q4.875,2.19,9.66,4.54a320.069,320.069,0,0,1-114.28,606.46h903.55v-65Zm-229-403.16-133.6,193.67v-57.59l133.6-193.66,46.57-67.46.04,57.45v.12l.17,190.85v.07l.05,57.85.19,220.86h-47.02Zm85.4,124.93V967.02l109.24-159.65V865.3ZM897.32,757.17a75.845,75.845,0,0,1,21.8,32.71c.12.36.24.73.36,1.1a76.234,76.234,0,0,1,0,46.3c-.12.37-.24.74-.36,1.1a76,76,0,1,1-21.8-81.21Zm-30.84,546V990.4l52.64-76.99v389.52h.36v.24ZM800.19,814.13a47,47,0,1,0,46.98-46.98A46.982,46.982,0,0,0,800.19,814.13Zm66.29-42.84a46.991,46.991,0,1,0,27.68,42.84A46.841,46.841,0,0,0,866.48,771.29Zm0,0a46.991,46.991,0,1,0,27.68,42.84A46.841,46.841,0,0,0,866.48,771.29Zm0,0a46.991,46.991,0,1,0,27.68,42.84A46.841,46.841,0,0,0,866.48,771.29Zm0,0a46.991,46.991,0,1,0,27.68,42.84A46.841,46.841,0,0,0,866.48,771.29ZM142.98,143.67V445.72q.705-13.305,2.5-26.32a318.166,318.166,0,0,1,53-137.02A320.4,320.4,0,0,1,445.7,143.67Zm723.5,627.62a46.991,46.991,0,1,0,27.68,42.84A46.841,46.841,0,0,0,866.48,771.29Zm0,0a46.991,46.991,0,1,0,27.68,42.84A46.841,46.841,0,0,0,866.48,771.29ZM251.47,788.81q-8.715,6.24-16.99,13.04v75.18a267.447,267.447,0,0,1,71.94-59.55A386.034,386.034,0,0,1,251.47,788.81Zm332.99,38.41A264.786,264.786,0,0,0,449.5,783.29v-.28a318.359,318.359,0,0,1-113.76-25.84q-7.05-3.03-13.91-6.41A320.29,320.29,0,0,1,145.48,507.1q-1.785-12.99-2.5-26.32v887.39H411.11a318.307,318.307,0,0,1-168.36-65q-4.185-3.21-8.27-6.57v-75.15a266.571,266.571,0,0,0,283.23,81.72c107.84-34.02,186.03-134.85,186.03-253.93A265.953,265.953,0,0,0,584.46,827.22ZM198.48,1262.01a320.285,320.285,0,0,1-53-81.73V690.79a391.54,391.54,0,0,0,53,58.1q4.71,4.23,9.55,8.28,12.765,10.74,26.45,20.34,8.34,5.88,16.99,11.3-8.715,6.24-16.99,13.04a321.472,321.472,0,0,0-36,34.59Zm668-490.72a46.991,46.991,0,1,0,27.68,42.84A46.841,46.841,0,0,0,866.48,771.29Zm0,0a46.991,46.991,0,1,0,27.68,42.84A46.841,46.841,0,0,0,866.48,771.29Z" transform="translate(-67.417 -68.446)"/><line class="cls-2" x1="167.063" y1="532.274" x2="167.063" y2="256.874"/><polyline class="cls-2" points="167.063 1153.004 167.063 808.584 167.063 733.404"/><polyline class="cls-2" points="167.063 709.064 167.063 688.724 167.063 619.324"/><polyline class="cls-2" points="167.063 1228.154 167.063 1234.724 167.063 1299.724 167.063 1300.724"/><polyline class="cls-2" points="167.063 170.284 167.063 75.224 167.063 74.724"/><polyline class="cls-2" points="643.563 299.134 643.563 490.014 643.563 596.514 643.563 686.464 643.563 688.724 643.563 814.464"/><polyline class="cls-2" points="643.563 1147.094 643.563 1149.364 643.563 1234.724 643.563 1299.224"/><polyline class="cls-2" points="643.563 193.094 643.563 94.444 643.563 75.224 643.563 74.224"/><path class="cls-2" d="M198.48,145.17V282.38a318.166,318.166,0,0,0-53,137.02V145.17Z" transform="translate(-67.417 -68.446)"/><path class="cls-2" d="M198.48,427.68v70.68a269.173,269.173,0,0,1,0-70.68Z" transform="translate(-67.417 -68.446)"/><path d="M240,781.329a9.675,9.675,0,0,1,.582,15.626q-3.081,2.409-6.1,4.895a321.435,321.435,0,0,0-33.506,31.823,9.628,9.628,0,0,0-2.494,6.492v394.661c0,9.307-11.869,13.28-17.442,5.826a319.687,319.687,0,0,1-34.684-58.444,9.725,9.725,0,0,1-.874-4.044V718.431a9.684,9.684,0,0,1,17.043-6.3A391.6,391.6,0,0,0,198.48,748.89q4.71,4.23,9.55,8.28,12.765,10.74,26.45,20.34Q237.224,779.444,240,781.329Z" transform="translate(-67.417 -68.446)"/><path class="cls-2" d="M198.48,644.11V748.89a391.54,391.54,0,0,1-53-58.1V507.1A318.125,318.125,0,0,0,198.48,644.11Z" transform="translate(-67.417 -68.446)"/><path class="cls-2" d="M198.48,1262.01v107.16h-53V1180.28A320.285,320.285,0,0,0,198.48,1262.01Z" transform="translate(-67.417 -68.446)"/><path class="cls-2" d="M1314.1,506.44c0,1.56-.02,3.11-.05,4.66a197.858,197.858,0,0,1-175.57,192.17c-.12.01-.24.03-.36.04-2.04.23-4.08.42-6.14.58q-7.9.645-15.97.64a199.548,199.548,0,0,1-30.53-2.34q-9.78-1.515-19.22-3.96A198.206,198.206,0,0,1,919.48,531.5c-.13-1.02-.25-2.03-.36-3.05V484.43c.11-1.02.23-2.04.36-3.05a198.125,198.125,0,0,1,166-170.69,199.548,199.548,0,0,1,30.53-2.34q7.89,0,15.63.61,3.255.255,6.48.61c.12.01.24.03.36.04a197.564,197.564,0,0,1,138.18,80.92c1.18,1.62,2.33,3.27,3.46,4.93A197.2,197.2,0,0,1,1314.1,506.44Z" transform="translate(-67.417 -68.446)"/><path class="cls-2" d="M1314.48,355V510.47l-.43.63a197.858,197.858,0,0,1-175.57,192.17c-.12.01-.24.03-.36.04-2.04.23-4.08.42-6.14.58q-7.9.645-15.97.64a199.548,199.548,0,0,1-30.53-2.34q-9.78-1.515-19.22-3.96A198.206,198.206,0,0,1,919.48,531.5c-.13-1.02-.25-2.03-.36-3.05V353.57c.12-.16.24-.32.36-.47a251.549,251.549,0,0,1,32.4-34.22,248.644,248.644,0,0,1,133.6-59.83,251.949,251.949,0,0,1,30.77-1.88q7.74,0,15.35.47c2.18.13,4.36.29,6.52.48.12,0,.24.02.36.03a249.961,249.961,0,0,1,168.69,87.76C1309.67,348.88,1312.12,351.91,1314.48,355Z" transform="translate(-67.417 -68.446)"/><path d="M1367.48,152.041V1295.265a7.9,7.9,0,0,1-7.9,7.9h-37.224a7.871,7.871,0,0,1-7.871-7.871V669.282a3.666,3.666,0,0,0-6.483-2.348A250.56,250.56,0,0,1,1192.66,744.75l-.09.03q-10.635,3.42-21.69,5.88a245.721,245.721,0,0,1-25.03,4.26c-2.45.29-4.9.55-7.37.76-.12.01-.24.03-.36.03q-3.03.27-6.09.46-7.83.48-15.78.49a251.949,251.949,0,0,1-30.77-1.88,248.444,248.444,0,0,1-133.6-59.83,250.934,250.934,0,0,1-32.4-34.22c-.13-.16-.25-.31-.36-.47A248.576,248.576,0,0,1,866.5,507.5l-.02.02V151.541a7.871,7.871,0,0,1,7.871-7.871h36.9a7.871,7.871,0,0,1,7.871,7.871V528.006a8.159,8.159,0,0,0,.048.885c.1.871.2,1.736.312,2.609a198.206,198.206,0,0,0,146.78,166.73q9.435,2.445,19.22,3.96a199.548,199.548,0,0,0,30.53,2.34q8.07,0,15.97-.64c2.06-.16,4.1-.35,6.14-.58.12-.01.24-.03.36-.04A198.079,198.079,0,0,0,1314.05,511.1l.43-.63V152.041a7.871,7.871,0,0,1,7.871-7.871h37.258A7.871,7.871,0,0,1,1367.48,152.041Z" transform="translate(-67.417 -68.446)"/><path class="cls-2" d="M894.16,814.13a46.976,46.976,0,0,1-27.68,42.84V771.29A46.976,46.976,0,0,1,894.16,814.13Z" transform="translate(-67.417 -68.446)"/><path class="cls-2" d="M919.12,838.38c.12-.36.24-.73.36-1.1v465.65h-.36V913.41L866.48,990.4V887.55A76.05,76.05,0,0,0,919.12,838.38Z" transform="translate(-67.417 -68.446)"/><path class="cls-2" d="M919.48,660.73V790.98c-.12-.37-.24-.74-.36-1.1a76.147,76.147,0,0,0-52.64-49.17V507.52l.02-.02a248.576,248.576,0,0,0,52.62,152.76C919.23,660.42,919.35,660.57,919.48,660.73Z" transform="translate(-67.417 -68.446)"/><path class="cls-2" d="M919.48,143.17V531.5c-.13-1.02-.25-2.03-.36-3.05V143.67H866.48v-.5Z" transform="translate(-67.417 -68.446)"/><line class="cls-2" x1="1298.063" y1="688.724" x2="1286.703" y2="688.724"/><polyline class="cls-2" points="729.603 688.724 643.563 688.724 640.893 688.724 521.883 688.724 501.133 688.724"/><polyline class="cls-2" points="75.063 688.724 75.563 688.724 78.063 688.724"/><polyline class="cls-2" points="268.323 688.724 239.073 688.724 167.063 688.724 140.613 688.724"/><polyline class="cls-2" points="1247.063 688.724 1247.053 688.724 1247.013 688.724 1212.703 688.724 1116.673 688.724 1116.603 688.724 1103.463 688.724 1076.873 688.724 1071.063 688.724 1070.703 688.724 1064.613 688.724 1018.063 688.724 958.543 688.724 884.463 688.724 852.063 688.724 851.703 688.724 829.903 688.724"/><polyline class="cls-2" points="1247.063 1234.724 1065.083 1234.724 913.073 1234.724 873.433 1234.724 873.393 1234.724 852.063 1234.724"/><polyline class="cls-2" points="75.063 1234.724 75.563 1234.724 78.063 1234.724 131.063 1234.724 167.063 1234.724 175.333 1234.724"/><line class="cls-2" x1="450.293" y1="1234.724" x2="289.893" y2="1234.724"/><polyline class="cls-2" points="564.873 1234.724 585.193 1234.724 643.563 1234.724 700.223 1234.724 739.943 1234.724 740.023 1234.724 799.063 1234.724"/><path class="cls-2" d="M1138.48,755.68v546.49h-5.98l-.19-220.86-.05-57.85v-.07l-.17-190.85v-.12l-.04-57.45-46.57,67.46V754.78a251.949,251.949,0,0,0,30.77,1.88q7.95,0,15.78-.49,3.06-.2,6.09-.46C1138.24,755.71,1138.36,755.69,1138.48,755.68Z" transform="translate(-67.417 -68.446)"/><path class="cls-2" d="M1138.48,142.17v561.1c-.12.01-.24.03-.36.04-2.04.23-4.08.42-6.14.58q-7.9.645-15.97.64a199.548,199.548,0,0,1-30.53-2.34V142.17Z" transform="translate(-67.417 -68.446)"/><polyline class="cls-2" points="1299.063 190.724 1247.063 266.774 1239.753 277.464 1212.703 317.024 1209.243 322.084 1103.463 476.784 1071.063 524.164 1070.703 524.694 1064.483 533.794 1018.063 601.674 998.843 629.784"/><polyline class="cls-2" points="540.063 1300.724 540.743 1299.724 585.193 1234.724 643.563 1149.364 799.063 921.954"/><polyline class="cls-2" points="851.703 844.964 852.063 844.444 884.463 797.054 958.543 688.724 968.023 674.854"/><line class="cls-2" x1="1289.063" y1="438.724" x2="1247.063" y2="499.604"/><polyline class="cls-2" points="1125.153 676.334 1116.603 688.724 1103.463 707.774 1071.063 754.734 1070.703 755.264 1064.673 763.974"/><polyline class="cls-2" points="884.463 1025.234 852.063 1072.204 851.703 1072.724"/><polyline class="cls-2" points="799.063 1149.034 739.943 1234.724 696.173 1298.184 695.103 1299.724 694.583 1300.484"/><path class="cls-2" d="M951.88,142.93V617.39a196.854,196.854,0,0,1-32.4-85.89c-.13-1.02-.25-2.03-.36-3.05V142.93Z" transform="translate(-67.417 -68.446)"/><path class="cls-2" d="M951.88,694.95v607.98H919.12V838.38c.12-.36.24-.73.36-1.1a76.234,76.234,0,0,0,0-46.3c-.12-.37-.24-.74-.36-1.1V660.26c.11.16.23.31.36.47A250.934,250.934,0,0,0,951.88,694.95Z" transform="translate(-67.417 -68.446)"/><polyline class="cls-2" points="1246.633 442.654 1212.703 491.834 1123.223 621.544"/><polyline class="cls-2" points="1125.243 676.304 1116.673 688.724 1103.463 707.874 1071.063 754.834 1070.703 755.364 1064.673 764.054"/><path d="M866.48,1296.12v-298.2a24.336,24.336,0,0,1,4.246-13.734l35.69-52.2a6.959,6.959,0,0,1,12.7,3.927v360.026a7.018,7.018,0,0,1-6.986,7.018l-38.6.176A7.018,7.018,0,0,1,866.48,1296.12Z" transform="translate(-67.417 -68.446)"/><polyline class="cls-2" points="1018.063 831.664 884.463 1025.334 852.063 1072.304 851.703 1072.824"/><polyline class="cls-2" points="799.063 1149.134 740.023 1234.724 696.223 1298.214 696.173 1298.184 669.253 1279.614 700.223 1234.724 799.063 1091.444"/><polyline class="cls-2" points="851.703 1015.134 852.063 1014.614 884.463 967.644"/><polyline class="cls-2" points="1064.633 706.524 1064.633 706.484 1070.703 697.674 1071.063 697.154 1076.873 688.724 1078.433 686.474"/><path class="cls-2" d="M1170.88,750.66v551.27h-32.76V755.71c.12,0,.24-.02.36-.03,2.47-.21,4.92-.47,7.37-.76A245.721,245.721,0,0,0,1170.88,750.66Z" transform="translate(-67.417 -68.446)"/><path class="cls-2" d="M1170.88,141.93v554.9a197.059,197.059,0,0,1-32.4,6.44c-.12.01-.24.03-.36.04V141.93Z" transform="translate(-67.417 -68.446)"/><path class="cls-2" d="M1314.48,141.93V510.47l-.43.63a197.061,197.061,0,0,1-33.93,106.31V141.93Z" transform="translate(-67.417 -68.446)"/><path class="cls-2" d="M1314.48,658.83v643.1h-34.36V695.37A249.2,249.2,0,0,0,1314.48,658.83Z" transform="translate(-67.417 -68.446)"/><line class="cls-2" x1="1299.063" y1="612.724" x2="1247.063" y2="688.714"/><polyline class="cls-2" points="1103.463 898.574 1071.063 945.914 1070.703 946.444 1064.843 955.004"/><polyline class="cls-2" points="1018.063 1023.374 884.463 1218.614 873.603 1234.484 873.433 1234.724 841.313 1281.664 828.963 1299.724 828.583 1300.274"/><polyline class="cls-2" points="1212.703 738.924 1247.053 688.724 1247.063 688.724"/><line class="cls-2" x1="1300.563" y1="668.464" x2="1300.063" y2="669.194"/><path d="M1280.12,830.071v28.1a23.03,23.03,0,0,1-4.024,13l-92.4,135.026a7.024,7.024,0,0,1-12.82-3.966v-27.9a23.649,23.649,0,0,1,4.131-13.354L1267.3,826.105A7.024,7.024,0,0,1,1280.12,830.071Z" transform="translate(-67.417 -68.446)"/><path d="M1081.518,905.753,959.108,1083.2a3.965,3.965,0,0,1-7.228-2.251v-37.677a23.068,23.068,0,0,1,4.08-13.1L1085.48,842.43l31.9-46.208a8.058,8.058,0,0,1,14.689,4.572l.022,31.626v.12l.17,190.85v.07l.05,57.85.183,212.989a7.864,7.864,0,0,1-7.864,7.871h-31.761a7.389,7.389,0,0,1-7.388-7.389V906.987A2.173,2.173,0,0,0,1081.518,905.753Z" transform="translate(-67.417 -68.446)"/><polyline class="cls-2" points="1103.463 956.494 1071.063 1003.844 1070.703 1004.374 1064.893 1012.864"/><polyline class="cls-2" points="1018.063 1081.294 913.073 1234.724 868.593 1299.724 868.313 1300.134 867.713 1299.724 841.313 1281.664 841.283 1281.644 873.393 1234.724 873.553 1234.484 884.463 1218.544 1018.063 1023.304"/><polyline class="cls-2" points="1064.843 954.944 1070.703 946.374 1071.063 945.854 1103.463 898.504 1212.703 738.864 1247.013 688.724 1247.063 688.644"/><line class="cls-2" x1="1247.063" y1="746.644" x2="1212.703" y2="796.854"/><line class="cls-2" x1="1300.563" y1="610.464" x2="1300.063" y2="611.194"/><path d="M919.48,790.98c-.12-.37-.24-.74-.36-1.1a75.913,75.913,0,1,0,0,48.5c.12-.36.24-.73.36-1.1a76.234,76.234,0,0,0,0-46.3Zm-53,65.99a46.991,46.991,0,1,1,27.68-42.84A46.841,46.841,0,0,1,866.48,856.97Z" transform="translate(-67.417 -68.446)"/><path class="cls-2" d="M894.16,814.13a46.959,46.959,0,1,1-27.68-42.84A46.976,46.976,0,0,1,894.16,814.13Z" transform="translate(-67.417 -68.446)"/><path class="cls-2" d="M894.16,814.13a46.959,46.959,0,1,1-27.68-42.84A46.976,46.976,0,0,1,894.16,814.13Z" transform="translate(-67.417 -68.446)"/><line class="cls-2" x1="383.083" y1="661.054" x2="383.083" y2="661.014"/><line class="cls-2" x1="383.083" y1="660.534" x2="383.083" y2="660.054"/><line class="cls-2" x1="382.083" y1="715.054" x2="382.083" y2="714.844"/><line class="cls-2" x1="382.083" y1="714.564" x2="382.083" y2="714.054"/><line class="cls-2" x1="799.063" y1="439.074" x2="798.083" y2="440.054"/><line class="cls-2" x1="1301.083" y1="420.054" x2="1300.063" y2="426.514"/><line class="cls-2" x1="1298.553" y1="436.074" x2="1298.083" y2="439.054"/><polyline class="cls-2" points="1064.613 687.724 1064.613 688.724 1064.633 706.484 1064.633 706.524"/><polyline class="cls-2" points="1065.083 1233.724 1065.083 1234.724 1065.083 1235.054"/><polyline class="cls-2" points="1064.563 635.444 1064.483 533.794 1064.223 240.514 1064.183 189.194 1064.083 75.224 1064.083 73.724 1064.083 73.054"/></g></svg>